<?xml version="1.0" encoding="utf-8"?>
<!-- Generator: Adobe Illustrator 24.2.3, SVG Export Plug-In . SVG Version: 6.00 Build 0)  -->
<svg version="1.1" id="Layer_1" xmlns="http://www.w3.org/2000/svg" xmlns:xlink="http://www.w3.org/1999/xlink" x="0px" y="0px"
	 viewBox="0 0 998.71 272.27" style="enable-background:new 0 0 998.71 272.27;" xml:space="preserve">
<style type="text/css">
	.st0{fill:#D43C68;}
	.st1{fill:#68C7C8;}
</style>
<g>
	<path class="st0" d="M0,2.53h12.89v265.15H0V2.53z"/>
	<path class="st0" d="M12.24,2.53h12.89v265.15H12.24V2.53z"/>
	<path class="st0" d="M38.01,2.53h12.56l131.77,252.58L313.15,2.53h12.24v265.15H312.5V30.56L189.75,267.68h-14.82L50.9,30.24
		v237.44H38.01V2.53z"/>
	<path class="st0" d="M338.27,2.21h46.71c77,0,105.03,45.1,105.03,94.08c0,48.65-29.32,94.08-105.03,94.08h-33.83v77.64h-12.89V2.21
		z M384.98,177.47c60.25,0,92.14-31.25,92.14-81.19c0-52.19-33.18-81.19-92.14-81.19h-33.83v162.38H384.98z"/>
	<path class="st0" d="M638.85,219.36H472.93l-20.3,48.33h-14.18L549.93,2.53h15.46l106.96,265.15h-14.18L638.85,219.36z
		 M633.7,206.47L557.67,17.03l-79.25,189.44H633.7z"/>
	<path class="st0" d="M920.75,14.78h-65.4V1.89h143.37v12.89h-65.08v252.91h-12.89V14.78z"/>
	<g>
		<polygon class="st0" points="688.41,141.31 691.69,144.58 691.69,144.58 688.41,141.31 688.41,132.83 691.69,129.55 
			691.69,129.55 688.41,132.83 		"/>
		<polygon class="st0" points="691.69,104.1 691.69,2.53 678.8,2.53 678.8,116.98 		"/>
		<polygon class="st0" points="678.8,157.15 678.8,267.68 691.69,267.68 691.69,170.04 		"/>
	</g>
</g>
<g>
	<polygon class="st1" points="819.38,272.27 688.41,141.31 688.41,132.83 821.24,0 829.72,8.49 701.14,137.07 827.86,263.79 	"/>
</g>
</svg>
