<?xml version="1.0" encoding="utf-8"?>
<!-- Generator: Adobe Illustrator 24.0.2, SVG Export Plug-In . SVG Version: 6.00 Build 0)  -->
<svg version="1.1" id="Layer_1" xmlns="http://www.w3.org/2000/svg" xmlns:xlink="http://www.w3.org/1999/xlink" x="0px" y="0px"
	 viewBox="0 0 354.8 500.94" style="enable-background:new 0 0 354.8 500.94;" xml:space="preserve">
<style type="text/css">
	.st0{fill:none;stroke:#000000;stroke-width:2;stroke-linecap:round;stroke-linejoin:round;stroke-miterlimit:10;}
</style>
<g>
	<path class="st0" d="M341.33,19c-2.93,9.97-7.61,19.31-10.07,29.48c-5.23,21.57-12.67,42.63-16.19,64.56
		c-2.14,13.37-4.87,26.74-4.84,40.46c0.03,12,3.46,22.61,10.05,32.54c6.8,10.24,12.13,21.27,10.94,33.95
		c-1.12,11.96,1.24,22.95,6.6,33.52c5.17,10.21,2.64,20.4-0.5,30.48c-4.13,13.26-4.33,26.78-3.61,40.51
		c0.46,8.82,1.87,17.38,3.52,26.01c2.08,10.86,7.75,20.13,12.16,29.96c2.17,4.84,3.74,9.85,4.33,15.04c0.44,3.87-0.72,7.8-4.42,9.92
		c-3.75,2.15-8.11,1.7-11.38-0.56c-7.5-5.17-13.51-11.88-18.11-19.86c-8.44-14.63-11.64-31.01-15.97-47.02c-1.35-5-2.67-10-4-15"/>
	<path class="st0" d="M239.33,8c-0.67,4.83-0.33,10.11-2.21,14.41c-3.8,8.67-2.68,17.72-3.81,26.59
		c-1.97,15.43-3.89,30.83-12.38,44.56c-4.84,7.83-5.83,17.16-8.06,25.95c-4.08,16.02-8.46,31.93-16.62,46.44
		c-2.24,3.98-0.84,7.82,0.29,10.97c4.93,13.72,10.13,27.36,19.18,39.16c2.38,3.11,4.85,6.2,7.15,9.38
		c4.29,5.92,7.96,12.15,10.46,19.03"/>
	<path class="st0" d="M30.33,1c-0.49,9.7-3.14,19.2-2.52,29c0.59,9.33,0.45,18.74,1.68,27.98c1.29,9.68-0.99,18.59-4.8,26.96
		c-8.5,18.65-13.87,38.24-18.22,58.09c-4.42,20.19-6.38,40.76-5.04,61.47c0.45,7.04,1.28,14.17,3.05,20.97
		c3.26,12.5,3,24.97,1.33,37.53c-1.74,13.03-0.8,25.5,3.78,38.1c3.57,9.84,3.46,20.49,0.81,30.92c-1.28,5.05-1.8,10.22,2.43,14.49
		c2.04,2.05,4.35,2.42,7.01,1.5c10.12-3.5,16.74-11.06,21.37-20.07c6.81-13.26,10.2-27.33,7.27-42.46c-0.44-2.28-0.94-4.76,0.7-7.57
		c6.39-10.94,4.51-22.54,1.04-33.87c-1.12-3.66-3.91-6.67-7.88-8.04"/>
	<path class="st0" d="M153.33,8c0,12.5-0.17,25,0.07,37.5c0.13,6.84,0.68,13.7,1.52,20.49c0.66,5.36,4.36,9.42,8,12.92
		c11.8,11.33,17.18,25.81,20.86,41.1c3.68,15.33,5.77,31.04,11.06,45.99"/>
	<path class="st0" d="M50.33,227.5c4.96-3.75,8.32,0.11,12.25,2.46c-1.94,1.73-1.48,3.72-0.71,5.52c1.17,2.74,2.56,5.39,3.97,8.01
		c4.18,7.75,4.82,16,3.47,24.5c-1.89,11.95-0.56,24.01-1.33,36.01c-0.32,4.95,2.08,9.8,1.98,14.99c-0.08,4.67-0.78,9.14-2.19,13.48
		c-2,6.21-3.59,12.47-3.41,19.02c0.11,3.73-1.5,6.93-3.66,9.4c-4.58,5.28-7.38,11.49-10.32,17.63c-2.18,4.53-2.68,9.47-1.87,14.44
		c1.43,0.06,2.48,0.18,3.33-0.96c4.13-5.58,8.98-10.6,12.04-16.99c2.07-4.32,5.4-7.81,8.94-11.03"/>
	<path class="st0" d="M175.83,285c-0.33,2.67-1.2,5.4-0.91,7.99c1.25,10.88-3.91,17.42-12.97,22.72
		c-6.02,3.51-11.52,8.04-15.81,14.16c-5.53,7.89-13.48,13.85-19.32,21.62c-4.29,5.7-9.3,10.82-13.03,16.98
		c-3.41,5.64-8.29,10.11-13.53,13.92c-5.02,3.66-8.79,8.26-12.43,13.1c-4.63,6.15-9.59,12-15.47,17.03c-3.66,3.13-8,3.9-12.52,3.93
		c-4.07,0.02-7.07-3.46-8.09-7.42c-1.53-5.97,0.46-11.05,3.16-15.99c1.07-1.95,2.27-3.7,1.93-6.04"/>
	<path class="st0" d="M288.33,412.5c1.3,4.06-0.09,8.18-0.75,11.96c-1.7,9.69-0.05,18.81,2.22,28.05
		c2.86,11.66,4.57,23.46,2.98,35.49c-0.34,2.54-0.77,5.34-2.1,7.41c-1.37,2.14-3.24,4.78-6.35,4.52c-3.53-0.31-5.81-2.51-7.03-5.92
		c-3.27-9.14-7.48-17.99-13.63-25.38c-8.37-10.06-11.71-21.68-13.29-34.13c-0.43-3.35-3.27-6.33-1.56-9.99"/>
	<path class="st0" d="M178.33,284c6.58,3.93,13.29,7.43,18.66,13.36c5.27,5.82,14.17,5.88,19.76,0.56
		c10.36-9.86,22.15-18.07,32.13-28.37c4.58-4.73,6.24-10.71,7.78-16.6c1.31-5.01,3.32-9.77,4.38-14.91
		c1.82-8.82,1.13-15.78-8.35-19.48c-6.12,2.82-9.98,7.91-12.88,13.93c-2.26,4.7-4.94,9.22-6.9,14.04c-1.83,4.49-4.58,7.72-9.08,9.47
		c-3.67,1.43-6.48,4.09-9.52,6.47c-5.76,4.51-8.78,4.69-14.95,0.47c-4.01-2.74-7.59-6.11-11.58-8.89c-2.19-1.52-4.81-3.93-7.38-2.88
		c-3.26,1.33-1.94,5.03-2.05,7.82c-0.14,3.53,0.49,7.01,0.86,10.51c0.53,5.01,0.45,10.14-2.88,14.49"/>
	<path class="st0" d="M296.83,300c-0.32,4.1,0.67,8.03,1.48,12c1.11,5.46,0.55,10.77-1.46,16.01c-6.6,17.22-10.31,35.05-11.04,53.49
		c-0.05,1.34-0.32,2.67-0.49,4"/>
	<path class="st0" d="M185.83,289.5c2.17,8.83,4.2,17.7,6.53,26.49c3.11,11.69,4.8,23.64,7.11,35.48
		c1.26,6.45,3.64,12.82,10.84,15.56c4.48,1.7,8.44,1.12,12-2.04c3.31-2.92,6.08-6.31,8.51-9.99c3.61-5.47,7.47-10.66,14.02-12.39
		c2.63,16.42,6.52,32.19,7.47,48.39"/>
	<path class="st0" d="M211.83,368.5c3.12,10.68,4.02,21.46,2.09,32.52c-0.65,3.71,0.53,7.61,2.08,10.91
		c1.43,3.05,5.31,3.11,8.33,4.11c9.85,3.27,20.27,4.82,29.55,9.89c2.48,1.35,4.8,2.74,7.01,4.51c2.73,2.18,6.03,2.55,8.39-0.47
		c5.19-6.65,12.51-11.19,17.56-17.95c3.71-4.96,8.08-9.6,7.5-16.51c-0.07-0.83,0.34-2.1-0.06-2.43c-3.4-2.79-6.62-6.16-10.55-7.83
		c-3.15-1.34-7.18,0.23-10.35,1.86c-3.39,1.74-6.44,4.16-9.54,6.42c-4.37,3.2-6.43,3.68-9.9-0.12c-4.88-5.34-11.34-7.16-17.66-9.26
		c-2.9-0.96-5.54,0.92-6.95,3.86"/>
	<path class="st0" d="M147.33,327c-1.18-0.89-2.22-0.13-2.97,0.53c-6.1,5.39-12.94,9.42-20.49,12.57
		c-8.5,3.55-15.39,9.75-22.52,15.43c-5.83,4.64-12.43,7.61-19.54,9.41c-5.76,1.46-8.83-1.55-10.1-7.42
		c-2.52-11.65,1.9-19.98,11.11-26.53c8.75-6.23,11.93-15.31,13.03-25.49c0.51-4.68,1.01-9.4,2.04-13.99
		c1.53-6.85,6.24-11.66,11.43-16.02"/>
	<path class="st0" d="M267.83,314c1.17,5.83,1.93,11.79,3.64,17.46c1.18,3.92,1.01,7.76,0.72,11.53c-0.33,4.14-0.57,8.86-5.85,10.52
		c-5.76,1.82-10.69,0.12-15.1-4.41c-1.64-1.68-1.69-4.97-4.9-5.1"/>
	<path class="st0" d="M266.83,263.5c-2.95,6.17-4.82,12.54-4.56,19.5c0.13,3.51,1.56,6.28,4.6,7.37c3.34,1.19,6.77-0.05,8.89-2.92
		c3.24-4.38,4.54-9.7,4.92-14.96c0.39-5.36-5.3-9.88-10.86-10.05c-7.59-0.22-12.2,4.06-16.57,9.5c-5.15,6.42-7.54,14.08-9.68,21.63
		c-1.45,5.1-3.94,9.07-7.83,11.81c-8.52,6.01-13.6,14.28-17.42,23.62"/>
	<path class="st0" d="M96.33,216.5c-3.29-0.5-4.75,2.16-6.45,4.04c-4,4.45-8.72,7.8-14.03,10.49c-4.59,2.33-9.02,2.8-13.52-0.04"/>
	<path class="st0" d="M136.33,291.5c-12.55,5.53-22.78,13.98-31.57,24.44c-3.41,4.06-8.16,6.45-13.43,7.56"/>
	<path class="st0" d="M287.33,389.5c-5.27,5.47-11.8,9.94-14.39,17.54c-0.3,0.89-0.85,1.59-1.16,2.44
		c-2.18,5.99-1.03,8.18,6.06,11.02"/>
	<path class="st0" d="M266.33,313.5c-3.99,5.8-6.89,12.25-10.89,18.07c-2.97,4.32-7.07,7.3-10.61,10.93"/>
	<path class="st0" d="M135.33,270c-5.84,6.17-6.63,14.4-9.06,21.98c-0.5,1.55-1.41,2.89-0.44,4.52"/>
	<path class="st0" d="M275.33,289c0.26,5.53-2.38,10.2-4.53,14.99c-1.32,2.95-2.85,5.8-3.47,9.01"/>
	<path class="st0" d="M255.33,221.5c-5.99,6.78-7.43,14.9-6.41,23.49c0.56,4.69,3.63,6.29,7.91,5.01"/>
	<path class="st0" d="M221.83,295c1.63,5.41,5.3,9.69,8,14.5"/>
	<path class="st0" d="M100.33,282.5c-4.67-0.88-9.33-2.9-14,0"/>
	<path class="st0" d="M45.33,226c1.67,0.78,3.27,1.64,4.02,3.44c-1.07,2.71-2.04,5.41-4.02,7.56"/>
	<path class="st0" d="M238.83,386c-1.96,1.38-3.93,2.72-6.5,2.5"/>
</g>
</svg>
