<?xml version="1.0" encoding="utf-8"?>
<!-- Generator: Adobe Illustrator 24.0.2, SVG Export Plug-In . SVG Version: 6.00 Build 0)  -->
<svg version="1.1" id="Layer_1" xmlns="http://www.w3.org/2000/svg" xmlns:xlink="http://www.w3.org/1999/xlink" x="0px" y="0px"
	 viewBox="0 0 424.64 425.09" style="enable-background:new 0 0 424.64 425.09;" xml:space="preserve">
<style type="text/css">
	.st0{fill:#78BD53;}
	.st1{fill:#FDD331;}
	.st2{display:none;fill:none;}
	.st3{fill:#006600;}
	.st4{fill:#5B4B06;}
</style>
<g>
	<path class="st0" d="M126.59,204.64c-7.58-2.08-15.39-3.04-23.32-2.97c-20.78,0-40.99,6.82-57.56,19.38
		c5.74-22.15,19.33-41.53,38.16-54.59c-5.8-1.1-11.73-1.64-17.67-1.57c-20.63,0.12-40.63,6.96-57.06,19.45
		c6.27-24.22,21.8-45,43.26-57.76c9.95-6.15,20.99-10.23,32.51-12.02c-9.12-4.82-17.6-10.76-25.27-17.67
		C45.44,82.34,38.88,61.9,41.97,41.75c20.16-3.1,40.58,3.45,55.14,17.67c6.91,7.6,12.84,15.94,17.67,24.91
		c1.94-11.52,6.07-22.56,12.22-32.5c12.77-21.04,33.27-36.31,56.99-42.58c-12.49,16.57-19.31,36.78-19.38,57.63
		c0,5.93,0.55,11.8,1.71,17.67c13.06-18.85,32.31-32.3,54.45-38.04c-12.49,16.65-19.24,36.85-19.24,57.63
		c-0.07,7.67,0.95,15.31,2.97,22.77"/>
	<path class="st1" d="M390.21,353.76l-36.57,36.38c-33.82,33.81-88.62,33.81-122.43,0l-85.84-85.65
		c-33.74-33.88-33.74-88.62,0-122.43l36.71-36.78c33.81-33.81,88.62-33.81,122.43,0l85.7,85.73c16.29,16.29,25.48,38.37,25.48,61.34
		C415.69,315.39,406.51,337.48,390.21,353.76L390.21,353.76z"/>
	<line class="st2" x1="211.07" y1="126.02" x2="175.05" y2="333.06"/>
	<line class="st2" x1="291.26" y1="135.97" x2="245.72" y2="398.47"/>
	<line class="st2" x1="361.43" y1="203.38" x2="325.91" y2="408"/>
	<line class="st2" x1="127.16" y1="209.82" x2="332.11" y2="174.27"/>
	<line class="st2" x1="134.95" y1="290.55" x2="399.19" y2="244.58"/>
	<g>
		<path class="st3" d="M63.94,200.56l-0.57-0.15c6.5-10.55,15.05-19.66,25.27-26.69c2.9-2.02,4.28-5.6,3.59-9.05
			c-0.76-3.44-3.45-6.15-6.96-6.83c-19.68-3.52-39.89-1.45-58.46,6c7.45-12.28,17.8-22.49,30.23-29.68
			c8.9-5.25,18.83-8.69,29.11-10.07c4.91,0.69,9.4-2.68,10.09-7.6c0.69-4.89-2.71-9.38-7.6-10.07
			c-8.48-4.89-16.29-10.83-23.32-17.67C54.35,77.78,48.06,63.08,47.65,47.62c15.46,0.41,30.23,6.7,41.2,17.67
			c6.76,7.03,12.63,14.91,17.45,23.46c0.76,4.89,5.39,8.21,10.21,7.45c4.89-0.83,8.21-5.38,7.45-10.28
			c1.8-10.49,5.51-20.49,11.11-29.47c7.1-11.87,16.91-21.87,28.64-29.19c-5.18,12.55-7.86,26.01-7.93,39.61
			c0,6.34,0.68,12.63,1.93,18.83c0.68,3.51,3.39,6.22,6.83,6.98c3.45,0.76,7.03-0.69,9.05-3.59c7.1-10.16,16.22-18.71,26.84-25.05
			c-5.04,12.54-7.72,25.93-7.72,39.53c-0.14,6.76,0.52,13.47,1.85,20.11c5.48-3.13,10.96-6.27,16.45-9.4
			c-0.5-3.54-0.79-7.15-0.85-10.71c-0.07-19.12,6.15-37.75,17.67-53c2.35-2.97,2.49-7.1,0.41-10.28c-2.06-3.11-5.94-4.62-9.59-3.65
			c-16.76,4.34-32.22,12.82-44.86,24.69c1.04-16.98,7.12-33.19,17.34-46.77c2.47-3.04,2.75-7.32,0.61-10.57
			c-2.21-3.31-6.29-4.75-10-3.59c-26.16,6.91-48.58,23.67-62.54,46.78c-3.09,5.12-5.8,10.5-7.94,16.09
			c-2.68-3.46-5.58-6.76-8.69-9.88C85.95,36.63,62.27,28.96,39,32.69c-3.16,0.83-5.58,3.25-6.41,6.41
			c-3.66,23.19,4.08,46.8,20.7,63.42c3.25,3.11,6.62,6.01,10.21,8.64c-5.45,2.07-10.69,4.69-15.67,7.79
			c-23.6,13.87-40.7,36.57-47.54,63.07c-0.97,3.66,0.54,7.46,3.73,9.52c3.11,2.08,7.25,1.95,10.21-0.33
			c13.73-10.57,30.3-16.71,47.54-17.67C49.91,186.17,41.42,201.63,37,218.39c-0.9,3.66,0.55,7.53,3.73,9.59
			c3.18,2.07,7.24,1.93,10.28-0.42c15.18-11.59,33.81-17.86,53-17.67c3.11,0.36,6.19,0.89,9.26,1.59c2.93-5.66,6.63-10.88,9.5-16.97
			C103,190.92,82.55,193.06,63.94,200.56z"/>
		<path class="st4" d="M396.43,224.77l-85.72-85.84c-25.88-26.23-64.73-34.85-99.31-22.08c-0.15-0.84-0.27-1.69-0.39-2.54
			c-5.48,3.13-10.96,6.27-16.45,9.4c0.03,0.13,0.05,0.26,0.07,0.39c-6.98,4.01-13.39,8.9-19.05,14.49l-36.45,37.14
			c-5.87,5.66-10.97,12.07-15.18,19.05c-0.4-0.08-0.79-0.14-1.19-0.21c-2.87,6.09-6.57,11.31-9.5,16.97
			c1.22,0.28,2.44,0.57,3.66,0.9c-12.3,34.57-3.6,73.09,22.21,99.09l85.72,85.72c37.19,37.12,97.51,37.12,134.78,0l36.78-36.78
			c18.07-17.95,28.23-42.38,28.23-67.84C424.66,267.16,414.5,242.72,396.43,224.77z M367.44,220.72l16.43,16.41v0.9l-20.85,3.74
			L367.44,220.72z M297.61,150.95l17.67,17.67l-20.97,3.71L297.61,150.95z M330.32,183.65l21.94,21.87l-6.91,39.63l-66.1,11.45
			l11.52-66.04L330.32,183.65z M218.65,132.93c20.85-7.38,43.9-5.18,62.95,6.22l-6.22,35.33l-65.9,11.45L218.65,132.93z
			 M271.65,193.53l-11.45,66.1l-65.56,11.45l11.45-66.11L271.65,193.53z M151.02,188.07l36.71-36.78c3.32-3.25,6.98-6.21,10.78-8.83
			l-8.07,47.2l-47.42,8.29C145.44,194.41,148.05,191.11,151.02,188.07z M169.38,315.6l-17.67-17.67l-1.24-1.37l22.63-3.94
			L169.38,315.6z M139.15,280.27c-10.69-19.32-12.68-42.24-5.44-63.07l54.37-9.4l-11.11,66.68L139.15,280.27z M239.16,384.89
			l-1.73-1.45l-17.67-17.67l22.92-4.08L239.16,384.89z M204.86,350.93l-20.28-20.3l7.24-41.54l65.9-11.46l-11.45,66.06
			L204.86,350.93z M318.31,401.99c-20.78,7.74-43.88,5.74-63.07-5.3l6.56-37.28l66.04-11.45L318.31,401.99z M265.31,340.87
			l11.45-66.06l66.13-11.52l-11.54,66.11L265.31,340.87z M384.56,347.07l-36.71,36.71c-2.97,2.83-6.07,5.46-9.38,7.81l8.14-47.01
			l45.88-8.48c-2.54,3.94-5.44,7.67-8.62,11.11L384.56,347.07z M349.23,326.36l11.45-66.04l35.55-6.22
			c10.83,19.25,13.03,42.17,6,63.09L349.23,326.36z"/>
	</g>
</g>
</svg>
