<?xml version="1.0" encoding="utf-8"?>
<!-- Generator: Adobe Illustrator 24.0.2, SVG Export Plug-In . SVG Version: 6.00 Build 0)  -->
<svg version="1.1" id="Layer_1" xmlns="http://www.w3.org/2000/svg" xmlns:xlink="http://www.w3.org/1999/xlink" x="0px" y="0px"
	 viewBox="0 0 268.21 364.49" style="enable-background:new 0 0 268.21 364.49;" xml:space="preserve">
<style type="text/css">
	.st0{fill-rule:evenodd;clip-rule:evenodd;fill:#7F7F7F;}
	.st1{fill-rule:evenodd;clip-rule:evenodd;fill:#CB2026;}
	.st2{fill-rule:evenodd;clip-rule:evenodd;fill:#2B2B2B;}
	.st3{fill-rule:evenodd;clip-rule:evenodd;fill:#4D240E;}
</style>
<polygon class="st0" points="67.54,144.41 196.44,144.41 205.88,161.61 206.03,357.61 62.55,357.61 62.55,157.8 "/>
<g>
	<polygon class="st1" points="138.75,16.28 105.19,48.75 86.69,65.14 95.4,92.04 112.72,107.02 142.43,110.35 162.87,98.69 
		179.92,84.54 179.92,63.32 172.31,41.26 	"/>
	<path class="st2" d="M162.72,350.73c-5.32,0-9.59,3.06-9.59,6.88c0,3.82,4.27,6.88,9.59,6.88h95.9c5.33,0,9.59-3.06,9.59-6.88
		c0-3.82-4.26-6.88-9.59-6.88H162.72z M162.72,350.73"/>
	<path class="st2" d="M81.21,137.53c-15.81,0-28.77,9.3-28.77,20.64v199.44c0,3.82,4.27,6.88,9.59,6.88c5.33,0,9.59-3.06,9.59-6.88
		V158.17c0-3.87,4.19-6.88,9.59-6.88H186.7c5.39,0,9.59,3.01,9.59,6.88l0.15,103.19c0,3.81,4.35,6.88,9.59,6.88
		c5.31,0,9.59-3.07,9.59-6.88l-0.15-103.19c0-11.28-12.97-20.64-28.77-20.64H81.21z M81.21,137.53"/>
	<rect x="153.28" y="144.41" class="st2" width="19.18" height="68.79"/>
	<rect x="153.28" y="226.96" class="st2" width="19.18" height="20.64"/>
	<rect x="114.93" y="144.41" class="st2" width="19.18" height="34.4"/>
	<rect x="114.93" y="192.57" class="st2" width="19.18" height="13.76"/>
	<path class="st3" d="M133.72,0c-3.28,0.05-6.29,1.29-8.02,3.33c-1.63,1.99-1.78,4.51-0.29,6.62c3.66,5.26,2.91,7.47,0.23,10.96
		c-2.63,3.44-8.76,7.57-16.19,12.19C102.04,37.78,93.5,43,86.75,49.88c-7.64,7.64-11.31,16.92-10.33,26.28
		c2.31,22.04,25.85,40.74,57.54,40.74c31.7,0,57.54-18.55,57.54-41.28c0-16.61-13.04-34.12-25.47-48.32
		c-7.5-8.65-15.73-16.92-24.65-24.82C139.42,0.86,136.65-0.05,133.72,0L133.72,0z M142.43,27.15c3.28,3.39,3.66,3.17,7.33,7.42
		c11.7,13.32,22.56,30.2,22.56,41.06c0,15.26-17.07,27.52-38.36,27.52c-21.28,0-36.71-12.15-38.44-28
		c-0.75-7.2,2.11-12.31,6.98-17.36c4.85-4.99,12.12-9.61,19.55-14.29c7.5-4.68,15.28-9.36,20.39-15.91
		C142.5,27.46,142.28,27.24,142.43,27.15L142.43,27.15z M142.43,27.15"/>
	<path class="st2" d="M9.59,350.73c-5.33,0-9.59,3.06-9.59,6.88c0,3.82,4.26,6.88,9.59,6.88H95.6c5.33,0,9.59-3.06,9.59-6.88
		c0-3.82-4.26-6.88-9.59-6.88H9.59z M9.59,350.73"/>
	<path class="st2" d="M138.75,357.61c0,3.82-4.26,6.88-9.59,6.88c-5.32,0-9.59-3.06-9.59-6.88c0-3.76,4.27-6.88,9.59-6.88
		C134.49,350.73,138.75,353.86,138.75,357.61L138.75,357.61z M138.75,357.61"/>
	<path class="st2" d="M205.88,299.08c-5.24,0.06-9.51,3.18-9.44,6.94v51.59c0,3.82,4.28,6.88,9.59,6.88c5.31,0,9.59-3.06,9.59-6.88
		v-51.59c0-1.83-0.98-3.61-2.84-4.94C210.97,299.79,208.5,299.03,205.88,299.08L205.88,299.08z M205.88,299.08"/>
</g>
</svg>
