<?xml version="1.0" encoding="utf-8"?>
<!-- Generator: Adobe Illustrator 24.0.2, SVG Export Plug-In . SVG Version: 6.00 Build 0)  -->
<svg version="1.1" xmlns="http://www.w3.org/2000/svg" xmlns:xlink="http://www.w3.org/1999/xlink" x="0px" y="0px"
	 viewBox="0 0 376 427" style="enable-background:new 0 0 376 427;" xml:space="preserve">
<style type="text/css">
	.st0{fill:#915506;}
	.st1{fill:#EAAF6A;}
	.st2{clip-path:url(#SVGID_2_);fill:#472A00;}
	.st3{fill:#A86F24;}
</style>
<g id="Layer_1">
	<polygon class="st0" points="60.67,403.94 42.32,376.41 42.32,339.7 23.97,315.23 15.81,259 30.09,228.57 96.36,172.49 
		124.08,152.03 111.1,112.14 114.43,98 102.27,74.54 87.51,74.03 74.95,56.26 74.68,24.88 116.84,7.52 155.3,26.25 200.36,25.67 
		235.16,32.54 262.55,7.52 304.34,28.07 306.99,64.71 292.85,81.12 267.65,84.8 268.67,114.37 251.92,152.03 286.15,168.41 
		323.45,194.61 353.3,236.37 367.83,287.71 343.1,328.49 338,355 327.71,402.52 291.1,417.19 258.47,422.29 221.73,411.47 
		206.52,387.62 197.96,377.59 178.04,377.59 150.37,414.15 122.61,422.29 98.27,426.37 	"/>
	<polygon class="st1" points="122.61,274.59 122.61,252 140.97,211.34 170.6,199.33 188,189 212.3,194.94 228.01,203 245.22,217.41 
		253.39,245 253.39,272.22 234.6,282.89 212.67,300.66 206.52,334.44 183.04,334.44 172.37,334.44 164.67,310.15 154,292.37 	"/>
	<polygon class="st1" points="245.86,367.04 248.23,327.92 265.41,314.29 290.9,322 296.23,349.26 290.3,377.11 271.04,386 
		250.6,378.89 	"/>
	<polygon class="st1" points="91.19,378.89 106,386 122.61,382.44 130.3,370 130.3,350.15 130.3,320.81 103.04,314.29 87.04,322.59 
		79.33,340.37 83.48,369.41 	"/>
	<g>
		<g>
			<defs>
				<rect id="SVGID_1_" width="376" height="427"/>
			</defs>
			<clipPath id="SVGID_2_">
				<use xlink:href="#SVGID_1_"  style="overflow:visible;"/>
			</clipPath>
			<path class="st2" d="M155.3,91v-7c0-3.86,3.67-7,8.17-7c4.51,0,8.17,3.14,8.17,7v7c0,3.86-3.67,7-8.17,7
				C158.97,98,155.3,94.86,155.3,91L155.3,91z M212.52,98c4.51,0,8.17-3.14,8.17-7v-7c0-3.86-3.67-7-8.17-7
				c-4.51,0-8.17,3.14-8.17,7v7C204.35,94.86,208.02,98,212.52,98L212.52,98z M367.83,287.71c-2.55,18.48-11.05,35.98-24.52,50.58
				V364c-0.16,32.05-28.39,58.9-65.58,62.37c-37.2,3.47-71.52-17.53-79.76-48.78c-3.35,0-6.61,0.41-9.96,0.41
				c-3.35,0-6.61,0-9.96-0.41c-8.24,31.25-42.56,52.25-79.76,48.78C61.08,422.9,32.86,396.05,32.7,364v-25.7
				c-13.47-14.6-21.97-32.1-24.52-50.58c-6.03-51.88,40.14-105,115.91-135.68c-16.61-14.39-25.96-33.8-25.99-54.03
				c0.03-3.14,0.29-6.26,0.73-9.38C78.84,83.01,65.33,67.02,65.39,49c0.22-18.43,14.49-34.59,35.16-39.82
				c20.62-5.22,42.85,1.7,54.76,17.07c20.85-7,44.03-7,64.91,0c11.56-15.64,33.72-22.97,54.54-18.02
				c20.82,4.95,35.41,21,35.92,39.51c0.51,18.51-13.18,35.11-33.75,40.88c0.54,3.11,0.86,6.24,0.99,9.38
				c-0.03,20.24-9.38,39.65-25.99,54.03C327.69,182.41,373.86,235.84,367.83,287.71L367.83,287.71z M235.16,32.54
				c18.26,9.65,31.96,24.53,38.56,42c13.19-4.26,21.65-15.28,21.07-27.34c-0.57-12.03-10.12-22.42-23.66-25.73
				C257.61,18.13,243.11,22.61,235.16,32.54L235.16,32.54z M102.27,74.54c6.6-17.47,20.3-32.35,38.56-42
				c-7.95-9.93-22.45-14.41-35.98-11.07C91.32,24.77,81.77,35.16,81.2,47.2C80.62,59.25,89.08,70.27,102.27,74.54L102.27,74.54z
				 M114.43,98c0.03,32.07,28.16,59.01,65.39,62.59v-22.55c-6.42-3.17-9.55-9.62-7.63-15.75c1.92-6.1,8.4-10.37,15.81-10.37
				c7.4,0,13.89,4.27,15.81,10.37c1.91,6.12-1.22,12.58-7.63,15.75v22.55c39.33-3.77,68.14-33.5,65.2-67.29
				c-2.94-33.8-36.59-59.56-76.12-58.27C145.69,36.29,114.4,64.12,114.43,98L114.43,98z M163.48,329c0-27.07-25.61-49-57.22-49
				c-31.61,0-57.22,21.93-57.22,49v35c0,27.07,25.61,49,57.22,49c31.61,0,57.22-21.93,57.22-49V329z M196.17,364v-21
				c-5.43,0.66-10.92,0.66-16.35,0v21C185.25,364.36,190.75,364.36,196.17,364L196.17,364z M326.96,329c0-27.07-25.61-49-57.22-49
				s-57.22,21.93-57.22,49v35c0,27.07,25.61,49,57.22,49s57.22-21.93,57.22-49V329z M237.93,161.99
				c-30.23,17.28-69.64,17.28-99.87,0C65.39,189,18.96,239.61,24.52,286.29c1.18,10.07,4.59,19.8,10.12,28.71
				c5.05-18.26,19.29-33.66,38.93-42v-32.7c0.03-8.53,1.27-17.03,3.77-25.32c1.15-3.74,5.62-5.96,9.97-4.98
				c2.11,0.46,3.89,1.61,5.01,3.23c1.12,1.59,1.4,3.5,0.86,5.31c-2.17,7.1-3.29,14.43-3.25,21.76v27.31
				c5.36-1.06,10.86-1.61,16.35-1.61c40.33,0,73.12,27.78,73.57,62.29c5.4,0.85,10.95,0.85,16.35,0
				c0.45-34.5,33.23-62.29,73.57-62.29c5.49,0,10.99,0.55,16.35,1.61V240.3c0-7.27-1.05-14.49-3.2-21.55
				c-1.11-3.75,1.5-7.57,5.88-8.53c4.41-0.98,8.84,1.29,10,5.03c2.46,8.18,3.67,16.6,3.67,25.05V273
				c19.63,8.34,33.88,23.74,38.93,42c5.52-8.91,8.93-18.65,10.12-28.71C357.04,239.61,310.61,189,237.93,161.99L237.93,161.99z
				 M138.96,336v28c0,15.48-14.62,28-32.7,28c-18.07,0-32.7-12.52-32.7-28v-28c0-15.48,14.62-28,32.7-28
				C124.33,308,138.96,320.52,138.96,336L138.96,336z M122.61,336c0-7.74-7.32-14-16.35-14c-9.03,0-16.35,6.26-16.35,14v28
				c0,7.74,7.31,14,16.35,14c9.03,0,16.35-6.26,16.35-14V336z M302.43,336v28c0,15.48-14.62,28-32.7,28c-18.07,0-32.7-12.52-32.7-28
				v-28c0-15.48,14.62-28,32.7-28C287.81,308,302.43,320.52,302.43,336L302.43,336z M286.09,336c0-7.74-7.31-14-16.35-14
				c-9.03,0-16.35,6.26-16.35,14v28c0,7.74,7.31,14,16.35,14c9.03,0,16.35-6.26,16.35-14V336z M286.09,336"/>
		</g>
	</g>
</g>
<g id="Layer_2">
	<path class="st3" d="M188,189c-36.11,0-65.39,25.07-65.39,56v7c0,3.86,3.67,7,8.17,7c4.51,0,8.17-3.14,8.17-7v-7
		c0-23.18,21.97-42,49.04-42c4.51,0,8.17-3.14,8.17-7C196.17,192.14,192.51,189,188,189L188,189z"/>
	<path class="st3" d="M218.55,195.45c-1.91-0.9-4.18-1.09-6.25-0.52c-2.11,0.55-3.83,1.78-4.86,3.44c-2.08,3.42-0.55,7.66,3.45,9.46
		c1.53,0.69,3.03,1.48,4.5,2.3c1.34,0.79,2.93,1.2,4.56,1.2c2.71,0,5.27-1.15,6.77-3.09c1.25-1.53,1.69-3.45,1.28-5.25
		c-0.42-1.83-1.67-3.45-3.48-4.49C222.58,197.39,220.7,196.41,218.55,195.45L218.55,195.45z"/>
	<path class="st3" d="M233.79,214.76c-1.92,0.9-3.33,2.43-3.9,4.24c-0.57,1.8-0.32,3.72,0.77,5.36c4.21,6.28,6.38,13.4,6.38,20.64v7
		c0,3.86,3.67,7,8.17,7c4.51,0,8.17-3.14,8.17-7v-7c0.1-9.65-2.71-19.14-8.17-27.59c-1.05-1.67-2.9-2.93-5.05-3.42
		C238,213.47,235.7,213.77,233.79,214.76L233.79,214.76z"/>
</g>
</svg>
