<?xml version="1.0" encoding="utf-8"?>
<!-- Generator: Adobe Illustrator 24.0.2, SVG Export Plug-In . SVG Version: 6.00 Build 0)  -->
<svg version="1.1" id="Layer_1" xmlns="http://www.w3.org/2000/svg" xmlns:xlink="http://www.w3.org/1999/xlink" x="0px" y="0px"
	 viewBox="0 0 680.11 454.66" style="enable-background:new 0 0 680.11 454.66;" xml:space="preserve">
<style type="text/css">
	.st0{fill:#E2CEB0;}
	.st1{fill:#BC9C5B;}
</style>
<path class="st0" d="M96.72,421.66c0,0-26,2-49-22l-31-64l-4-63l23-54l-4-44l29-26l57-19l64-41l47-30l33-11l44-32h53l45.45,13.1
	l18.55,19.9l39-6l47,52l49,31l14-3c0,0,24,12,48,16l24,30v50l23,46l-5,68l-33,55l-91,34l-126,20h-90h-74l-45-9l-51-9L96.72,421.66z"
	/>
<g id="i4nc0I_1_">
	<g>
		<path class="st1" d="M0,284.14c2.19-9.94,3.34-20.42,6.84-29.67c4.62-12.18,10.95-23.5,16.89-34.94c1.5-2.89,2.36-4.81,1.13-8.29
			c-10.15-28.51,0.49-57.48,25.42-67.63c14.89-6.06,30.39-9.99,45.37-15.78c34.38-13.3,64.72-35.03,92.74-61.75
			c9.63-9.18,20.35-16.89,30.96-24.52c11.39-8.18,23.55-8.49,35.93-2.63c1.43,0.67,4.22,0.62,4.97-0.46
			c13.91-19.87,32.47-30.24,53.31-35.07c30.51-7.08,60.05-3.69,87.06,15.79c6.82,4.92,12.52,12.08,18.42,18.59
			c1.84,2.03,2.87,2.82,5.39,1.52c12.76-6.57,25.57-6.16,37.18,2.88c15.36,11.95,30.28,24.7,45.1,37.57
			c20.17,17.52,41.85,31.77,65.11,42.72c4.89,2.3,8.41,5.66,8.38,12.31c-0.03,9.25-7.07,14.61-14.85,10.24
			c-17.36-9.75-34.93-19.25-51.4-30.83c-13.77-9.68-26-22.35-39.11-33.37c-7.56-6.35-15.47-12.14-23.3-18.04
			c-10.41-7.85-23.53-2.65-29.65,9.58c-6.09,12.18-3.02,28.67,7.82,35.01c8.98,5.25,18.7,9.37,28.49,12.02
			c42.8,11.58,80.51,34.68,114.65,66.74c10.48,9.85,22.04,18.12,33.09,27.15c10.61,8.67,24.64,2.36,30.38-10.68
			c5.8-13.17,0.99-29.48-10.68-35.38c-3.8-1.92-7.81-3.26-11.75-4.77c-6.54-2.5-10.2-8.7-8.59-14.7c1.98-7.4,7.38-10.63,14.26-8.28
			c9.6,3.28,19.08,6.81,26.5,15.39c12.82,14.81,16.74,36.19,9.53,55.46c-1.53,4.09-1.03,6.46,1.2,9.78
			c33.01,49.25,30.83,115.14-5.29,160.54c-11.94,15.01-26.53,25.21-43.07,31.69c-46.24,18.14-93.82,28.67-142.2,34.89
			c-45.54,5.85-91.23,7.82-136.99,7.39c-66.31-0.62-132.26-5.99-197.21-22.84c-11.83-3.07-23.55-6.77-35.27-10.41
			c-7.19-2.23-10.42-8.5-8.75-16.17c1.3-6,7.31-9.11,13.99-6.91c31.05,10.18,62.61,17.52,94.55,22.34
			c18.26,2.76,36.63,5.04,55.01,6.08c33.86,1.91,67.77,3.65,101.66,3.81c56.11,0.27,111.94-4.66,167.24-16.41
			c28.15-5.98,55.84-14.03,82.93-24.84c54.77-21.86,74.3-101.12,37.95-153.88c-0.31-0.46-0.63-0.9-1.21-1.73
			c-1.67,0.91-3.28,1.75-4.86,2.66c-13.05,7.52-26.11,7.67-38.52-1.38c-11.28-8.22-22.73-16.45-32.95-26.32
			c-34.25-33.09-72.51-56.09-115.93-67.39c-8.51-2.21-16.95-5.9-24.73-10.53c-5.89-3.51-11.44-8.84-15.7-14.78
			c-3.26-4.56-5.79-5.32-9.86-3.15c-0.75,0.4-1.57,0.59-2.76,1.03c0.5,26.2-7.33,50.85-10.88,76.37
			c-3.82,27.44-1.35,54.4,4.27,81.18c3.5,16.66,6.7,33.38,6.56,50.75c-0.29,35.21-25.04,64.21-54.87,63.96
			c-30.15-0.26-54.32-28.94-54.53-64.33c-0.11-17.97,3.24-35.24,7.01-52.42c7.91-36.01,6.68-71.71-1.1-107.57
			c-3.34-15.4-4.93-31.32-7.32-47c0.47-0.26,0.95-0.53,1.42-0.79c-2.31-0.88-4.58-1.99-6.95-2.52c-1.03-0.23-2.78,0.32-3.3,1.23
			c-10.08,17.58-25.83,24.23-42.09,28.68c-31.39,8.59-61.01,21.88-87.83,42.92c-11.73,9.2-22.59,19.94-34.08,29.58
			c-8.51,7.14-17.33,13.79-26.16,20.41c-13.74,10.3-27.8,10.32-42.02,1.26c-0.72-0.46-1.49-0.82-2.64-1.45
			c-8.22,10.82-13.6,23.41-16.88,37.24c-9.32,39.36,4.19,82.46,32.96,105.64c1.1,0.88,2.21,1.74,3.24,2.72
			c4.66,4.43,6.05,10.84,3.35,15.39c-3.9,6.6-9.59,8.28-15.14,4.12c-15.32-11.49-27.26-26.71-35.74-45.6
			c-5.95-13.24-9.78-27.29-11.25-42.19c-0.09-0.9-0.55-1.75-0.84-2.62C0,300.55,0,292.34,0,284.14z M339.78,361.37
			c21.4,0.06,37.12-21.11,34.16-46.78c-1.53-13.28-3.75-26.49-6.31-39.56c-5.5-28.15-8.68-56.44-4.36-85.19
			c2.47-16.47,5.85-32.75,8.47-49.2c1.91-12.03,4.1-24.18,1.02-36.43c-4.88-19.4-20.68-31.08-38.21-28.34
			c-15.99,2.5-29.44,20.1-28.4,39.84c0.81,15.43,3.33,30.88,6.28,46c6.03,30.93,8.66,61.87,3.43,93.29
			c-3.21,19.28-6.9,38.48-9.54,57.86C302.7,339.32,318.2,361.3,339.78,361.37z M63.94,218.01c3.05-1.34,6.42-2.11,9.09-4.13
			c10.19-7.72,20.26-15.67,30.18-23.86c12.37-10.21,24.19-21.39,36.89-31c27.09-20.52,57.01-33.13,88.31-41.71
			c7.21-1.98,14.3-5.27,20.95-9.14c11.39-6.65,15.15-22.66,8.93-35.55c-6.05-12.53-19.49-17.82-29.98-9.66
			c-9.42,7.32-19.25,14.1-27.96,22.45c-32.06,30.7-67.21,54.47-107,68.37c-12.88,4.5-25.94,8.33-38.62,13.49
			c-9.78,3.98-15.1,16.66-13.01,27.88C44.16,208.45,52.95,217.27,63.94,218.01z M340.08,22.89c-9.12,1.83-18.38,3.01-27.32,5.65
			c-13.57,4-25.99,10.85-35.37,23.76c-2.01,2.76-2.05,4.86-0.79,8.3c2.32,6.37,4.19,13.1,5.26,19.9c0.63,3.96,0.73,6.93,4.73,8.07
			c4.2,1.2,4.2-2.94,5.4-5.22c11.89-22.64,29.13-33.96,51.7-32.23c20.07,1.53,34.77,14.01,45.24,33.89
			c0.86,1.64,3.07,3.17,4.68,3.21c2.63,0.05,4.01-1.92,4.68-5.5c1.44-7.71,3.91-15.15,5.59-22.81c0.48-2.2,0.48-5.76-0.65-7.02
			c-4.9-5.46-9.85-11.22-15.62-15.2C373.08,27.69,356.98,24.11,340.08,22.89z"/>
	</g>
</g>
</svg>
