<?xml version="1.0" encoding="utf-8"?>
<!-- Generator: Adobe Illustrator 24.0.2, SVG Export Plug-In . SVG Version: 6.00 Build 0)  -->
<svg version="1.1" id="Layer_1" xmlns="http://www.w3.org/2000/svg" xmlns:xlink="http://www.w3.org/1999/xlink" x="0px" y="0px"
	 viewBox="0 0 519.23 500" style="enable-background:new 0 0 519.23 500;" xml:space="preserve">
<style type="text/css">
	.st0{fill:#BCBCBC;}
	.st1{fill:#674119;}
	.st2{fill:#757576;}
	.st3{fill:#580D0D;}
	.st4{fill-rule:evenodd;clip-rule:evenodd;}
</style>
<path class="st0" d="M257.59,250c0,0-103.31-31.6-16.61-78.04l37.87-9.41l24.71,23.67l8.96,20.52l-13.16,27.98L257.59,250z"/>
<path class="st1" d="M223.92,234.71l-26.8-27.98l24.02-34.33l9.64-12.59l-16.83-16.01l5.33-21.65l21.11-6.02l19.07-4.83l19.46,4.76
	l24.63,6.1l-8.26,10.21l-6.83,27.45l15.09,26.4v20.51l-4.2,27.98l-10.89,15.44v26.44l41.99,11.31l35.3,29.39l22.02,40.13
	l24.24-11.27l98.3-91.74c0,0,15.96-206.66-231.46-240.98c0,0-234.43-27.61-268.01,240.98l123.78,112.25l9.62-43.01l50.49-37.92
	l36.04-9.14l9.69-16.98L223.92,234.71z"/>
<path class="st2" d="M182.68,294.78l-40.61,38.75l-14,40.42l-5.19,58.66v13.52l22.3-8.04l21.19,23.44c0,0,112,72.61,208.15-22.68
	l22.76,7.29c0,0,13.8-86.68-58.57-151.35c0,0-33.72-40.16-128.76-15.95L182.68,294.78z"/>
<polygon class="st3" points="233.74,290.13 240.46,269.23 201.87,290.13 191.53,302.87 209.96,320.98 263.51,339.38 295.29,330.72 
	317.35,317.29 326.02,295.99 308.37,277.19 288.46,269.21 277.42,278.76 285.69,297.17 273.25,302.87 250,302.87 "/>
<polygon class="st3" points="283.73,284.24 283.73,302.87 250,302.87 233.74,290.13 240.46,269.23 240.46,250 276.48,247.43 "/>
<polygon class="st3" points="256.4,162.55 230.77,159.81 211.62,137.51 219.27,122.15 244.13,125.84 259.46,111.3 278.85,126.95 
	303.55,122.15 303.55,145.36 288.46,159.81 "/>
<g>
	<path class="st4" d="M240.23,240.38c-5.32,0.08-9.54,4.44-9.46,9.77v26.44l-8.65,17.21c-1.19,2.46-1.34,5.41-0.21,7.96
		c1.04,2.54,3.15,4.57,5.78,5.48l28.85,9.53c2.02,0.68,4.12,0.68,6.08,0l28.85-9.53c2.71-0.91,4.81-2.94,5.87-5.48
		c1.11-2.55,0.96-5.5-0.31-7.96l-8.56-17.21v-26.44c0.07-3.46-1.81-6.69-4.81-8.48c-2.94-1.73-6.69-1.73-9.7,0
		c-2.94,1.79-4.81,5.02-4.73,8.48v28.77c0,1.49,0.36,2.92,0.96,4.29l4.67,9.23l-15.25,5.12l-15.33-5.12l4.66-9.23
		c0.68-1.37,1.06-2.79,1.06-4.29v-28.77c0-2.64-0.98-5.12-2.87-6.98C245.34,241.36,242.86,240.3,240.23,240.38L240.23,240.38z
		 M240.23,240.38"/>
	<path d="M259.62,153.85c-33.5,0-62.5,22.69-62.5,52.88c0,30.19,29,52.89,62.5,52.89c33.5,0,62.5-22.69,62.5-52.89
		C322.12,176.53,293.11,153.85,259.62,153.85L259.62,153.85z M259.62,172.4c25.31,0,43.94,16.38,43.94,34.33
		c0,17.96-18.63,34.32-43.94,34.32c-25.33,0-43.94-16.36-43.94-34.32C215.67,188.78,234.28,172.4,259.62,172.4L259.62,172.4z
		 M259.62,172.4"/>
	<path d="M250,197.12c0,5.34-4.29,9.61-9.62,9.61c-5.35,0-9.62-4.27-9.62-9.61c0-5.33,4.27-9.62,9.62-9.62
		C245.71,187.5,250,191.78,250,197.12L250,197.12z M250,197.12"/>
	<path d="M288.46,197.12c0,5.34-4.29,9.61-9.62,9.61c-5.35,0-9.62-4.27-9.62-9.61c0-5.33,4.27-9.62,9.62-9.62
		C284.17,187.5,288.46,191.78,288.46,197.12L288.46,197.12z M288.46,197.12"/>
	<path d="M240.46,259.62c-0.54,0-1.06,0.07-1.65,0.15c-17.29,2.64-31.72,8.2-42,16.44c-10.37,8.27-16.75,20.96-13.08,33.59
		c3.61,12.61,14.57,21.25,27.96,27.19c13.36,5.84,30.04,9.16,47.93,9.16c17.94,0,34.56-3.31,47.92-9.23
		c13.45-5.87,24.35-14.51,27.94-27.12c3.67-12.64-2.79-25.41-13.08-33.65c-10.28-8.27-24.79-13.75-42.06-16.39
		c-3.45-0.68-6.98,0.68-9.17,3.39c-2.25,2.69-2.77,6.38-1.49,9.61c1.34,3.3,4.28,5.55,7.74,5.99c14.79,2.25,26.37,7.14,32.96,12.4
		c6.54,5.25,7.89,9.08,6.62,13.29c-1.19,4.29-6.83,10.29-17.19,14.89c-10.38,4.58-24.66,7.58-40.19,7.58
		c-15.48,0-29.83-3.01-40.2-7.58c-10.29-4.6-16-10.6-17.21-14.89c-1.27-4.21,0-7.95,6.54-13.21c6.61-5.27,18.25-10.23,32.98-12.48
		c5.04-0.67,8.72-5.09,8.42-10.21C249.77,263.51,245.55,259.53,240.46,259.62L240.46,259.62z M240.46,259.62"/>
	<path d="M309.27,269.23c-4.81-0.16-8.95,3.23-9.77,7.96c-0.82,4.73,1.96,9.33,6.54,10.83c27.11,9.02,41.84,19.9,51.38,31.54
		c9.54,11.65,14.12,24.65,19.07,39.15c4.5,13.21,7.21,37.18,8.33,57.08c0.62,9.77,0.39,11.27,0.54,17.74
		c-2.04-1.35-1.89-1.12-4.07-2.7c-10.44-7.52-22.61-17.21-27.94-23.6c-3.31-3.98-8.35-13.36-12.02-21.33
		c-3.7-7.9-6.23-14.5-6.23-14.5c-1.89-4.97-7.44-7.44-12.4-5.56c-4.96,1.95-7.44,7.5-5.56,12.46c0,0,2.77,7.05,6.69,15.63
		c3.98,8.56,8.79,18.41,14.72,25.62c8.04,9.54,20.59,19.08,31.55,26.89c11.04,7.8,20.28,13.67,20.28,13.67
		c3.02,1.81,6.69,1.89,9.77,0.23c3.02-1.74,4.97-4.88,4.97-8.35c0,0,0.15-16.75-1.06-37.33c-1.19-20.6-3.44-44.85-9.38-62.21
		c-4.97-14.5-10.29-30.34-22.39-45.06c-12.02-14.81-30.58-27.81-60.17-37.64C311.21,269.46,310.25,269.23,309.27,269.23
		L309.27,269.23z M209.96,269.23c-1.21-0.08-2.4,0.15-3.46,0.53c-29.6,9.83-48.15,22.83-60.25,37.64
		c-12.1,14.71-17.43,30.56-22.31,45.06c-6,17.37-8.27,41.62-9.38,62.21c-1.22,20.58-1.06,37.33-1.06,37.33
		c0,3.46,1.89,6.69,4.96,8.35c3.08,1.73,6.75,1.58,9.77-0.23c0,0,9.23-5.87,20.19-13.67c10.98-7.81,23.59-17.35,31.56-26.89
		c5.94-7.21,10.82-17.06,14.73-25.62c3.9-8.58,6.67-15.63,6.67-15.63c1.88-4.96-0.52-10.52-5.48-12.46
		c-4.96-1.89-10.59,0.59-12.45,5.56c0,0-2.56,6.54-6.18,14.5c-3.67,7.96-8.71,17.35-12.02,21.33c-5.33,6.39-17.5,16.08-27.95,23.6
		c-2.25,1.58-2.1,1.34-4.06,2.7c0.08-6.47-0.06-7.96,0.46-17.74c1.12-19.9,3.83-43.86,8.41-57.08c4.88-14.5,9.48-27.5,19.02-39.15
		c9.54-11.64,24.32-22.52,51.37-31.54c4.51-1.43,7.29-5.87,6.69-10.52C218.52,272.84,214.61,269.38,209.96,269.23L209.96,269.23z
		 M209.96,269.23"/>
	<path d="M154,432.69c-3.77-0.08-7.15,2.04-8.8,5.4c-1.64,3.38-1.12,7.36,1.21,10.31c25.85,32.52,68.13,51.52,113.13,51.6
		c45,0,87.37-18.93,113.27-51.46c2.34-2.61,2.95-6.39,1.73-9.69c-1.27-3.29-4.19-5.62-7.66-6.15c-3.54-0.44-6.98,1.05-9.09,3.9
		c-21.79,27.35-58.68,44.18-98.26,44.18c-39.51-0.08-76.32-16.99-98.03-44.31C159.69,434.11,156.92,432.69,154,432.69L154,432.69z
		 M259.62,0C116.35,0,0,116.36,0,259.62c0,2.7,1.11,5.27,3.16,7.05l115.38,105.02c2.55,2.4,6.15,3.23,9.53,2.27
		c3.31-1.06,5.87-3.85,6.54-7.29c0.75-3.39-0.54-7-3.16-9.25L19.59,255.71c2.12-131,108.48-236.48,240.02-236.48
		c131.54,0,237.9,105.48,240,236.48L387.77,357.42c-2.71,2.25-3.91,5.86-3.16,9.25c0.67,3.44,3.23,6.23,6.54,7.29
		c3.37,0.96,6.98,0.13,9.54-2.27l115.38-105.02c1.94-1.79,3.16-4.35,3.16-7.05C519.23,116.36,402.86,0,259.62,0L259.62,0z M259.62,0
		"/>
	<path d="M28.23,162.55c-3.6,0.23-6.75,2.33-8.17,5.56c-1.5,3.31-1.06,7.08,1.11,9.92l93.75,125c3.16,4.21,9.17,5.12,13.46,1.88
		c4.19-3.15,5.1-9.17,1.95-13.46l-93.75-125C34.62,163.84,31.46,162.34,28.23,162.55L28.23,162.55z M62.27,95.24
		c-3.39,0.07-6.46,1.89-8.2,4.81c-1.65,3.02-1.65,6.62,0,9.54l89.25,162.27c1.58,3.16,4.73,5.18,8.27,5.33
		c3.52,0.08,6.83-1.73,8.64-4.81c1.8-3,1.73-6.82-0.08-9.83L70.9,100.28C69.17,97.13,65.88,95.17,62.27,95.24L62.27,95.24z
		 M119.65,47.17c-3.08,0.16-5.84,1.74-7.5,4.29c-1.74,2.56-2.04,5.79-0.98,8.64l66.41,187.5c0.98,3.38,3.82,5.94,7.29,6.61
		c3.46,0.75,7.06-0.52,9.31-3.3c2.27-2.71,2.79-6.46,1.52-9.77l-66.42-187.5C127.85,49.57,123.94,46.96,119.65,47.17L119.65,47.17z
		 M187.27,13.44c-2.92,0.07-5.63,1.52-7.36,3.77c-1.81,2.25-2.49,5.17-1.81,8.04l14.42,67.31c0.54,3.52,3.02,6.38,6.39,7.57
		c3.38,1.13,7.08,0.39,9.69-2.1c2.56-2.4,3.61-6.09,2.71-9.53l-14.42-67.31C195.98,16.59,191.92,13.38,187.27,13.44L187.27,13.44z
		 M490.67,162.55c-3.16-0.08-6.15,1.37-8.04,3.91l-93.75,125c-3.16,4.29-2.25,10.31,1.96,13.46c4.29,3.23,10.29,2.33,13.45-1.88
		l93.75-125c2.25-2.85,2.63-6.77,1.05-10C497.6,164.75,494.28,162.63,490.67,162.55L490.67,162.55z M456.65,95.24
		c-3.46,0-6.68,1.96-8.35,5.04l-89.23,162.27c-1.89,3.01-1.89,6.83-0.07,9.83c1.73,3.08,5.09,4.89,8.63,4.81
		c3.52-0.15,6.69-2.17,8.27-5.33l89.23-162.27c1.66-3,1.66-6.67-0.08-9.61C463.27,97.06,460.11,95.17,456.65,95.24L456.65,95.24z
		 M399.33,47.09c-4.19-0.06-8.04,2.55-9.38,6.54l-66.41,187.5c-1.34,3.31-0.75,7.06,1.5,9.77c2.25,2.79,5.87,4.06,9.31,3.3
		c3.46-0.67,6.33-3.23,7.29-6.61l66.41-187.5c1.14-2.93,0.77-6.16-1.04-8.71C405.27,48.75,402.42,47.24,399.33,47.09L399.33,47.09z
		 M331.73,13.44c-4.6,0.07-8.5,3.31-9.41,7.75L307.9,88.5c-0.89,3.44,0.08,7.13,2.71,9.53c2.64,2.49,6.31,3.23,9.69,2.1
		c3.39-1.19,5.79-4.06,6.38-7.57l14.42-67.31c0.68-2.87-0.08-5.87-1.89-8.12C337.44,14.81,334.65,13.44,331.73,13.44L331.73,13.44z
		 M259.38,98.03c-1.88,0.08-3.82,0.68-5.4,1.81c0,0-7.6,8.63-13.6,16.29c-14.58-5.63-29.46-4.42-29.46-4.42
		c-4.12,0.59-7.35,3.82-8.04,7.95c0,0-5.93,25.16,10.83,41.47c8.35,8.11,19.08,10.13,27.27,10.82c8.19,0.59,14.87-0.46,14.87-0.46
		l-1.5,0.15h10.53l-1.5-0.15c0,0,6.69,1.05,14.87,0.46c8.19-0.69,18.94-2.71,27.27-10.82c16.77-16.31,10.83-41.47,10.83-41.47
		c-0.67-4.13-3.91-7.36-8.11-7.95c0,0-14.66-1.14-29.29,4.34c-5.87-7.42-13.31-15.84-13.31-15.84
		C263.88,98.78,261.71,98.03,259.38,98.03L259.38,98.03z M259.46,122.15c3.16,3.15,5.48,4.72,7.58,8.94
		c1.28,2.48,3.54,4.27,6.18,4.94c2.69,0.69,5.55,0.23,7.81-1.34c4.5-3.01,8.79-2.1,14.27-2.33c-0.23,5.94,0.74,11.12-3.24,14.94
		c-3.15,3.15-9.46,4.96-15.32,5.42c-5.85,0.44-10.44-0.23-10.44-0.23c-0.44-0.08-0.9-0.08-1.42-0.08h-10.53
		c-0.52,0-0.96,0-1.49,0.08c0,0-4.5,0.67-10.37,0.23c-5.87-0.46-12.18-2.27-15.41-5.42c-3.9-3.83-2.92-9.08-3.15-15.02
		c5.56,0.22,9.85-0.68,14.06,2.33c2.4,1.65,5.4,2.17,8.17,1.34c2.79-0.75,5.03-2.7,6.17-5.41
		C254.27,126.28,256.54,125.08,259.46,122.15L259.46,122.15z M259.46,122.15"/>
</g>
</svg>
