<?xml version="1.0" encoding="utf-8"?>
<!-- Generator: Adobe Illustrator 24.0.2, SVG Export Plug-In . SVG Version: 6.00 Build 0)  -->
<svg version="1.1" id="Layer_1" xmlns="http://www.w3.org/2000/svg" xmlns:xlink="http://www.w3.org/1999/xlink" x="0px" y="0px"
	 viewBox="0 0 569 1009.22" style="enable-background:new 0 0 569 1009.22;" xml:space="preserve">
<path d="M284.5,47.5c31.6,0,62.28,6.74,91.17,20.02c28.15,12.95,53.49,31.54,75.32,55.28c22.04,23.96,39.36,51.92,51.49,83.09
	c12.62,32.45,19.03,66.97,19.03,102.61c0,35.63-6.4,70.16-19.03,102.61c-12.13,31.18-29.45,59.13-51.49,83.09
	c-21.83,23.73-47.17,42.33-75.32,55.28c-28.89,13.28-59.56,20.02-91.17,20.02s-62.28-6.74-91.17-20.02
	c-28.15-12.95-53.49-31.54-75.32-55.28c-22.04-23.96-39.36-51.92-51.49-83.09C53.9,378.66,47.5,344.13,47.5,308.5
	c0-35.63,6.4-70.16,19.03-102.61c12.13-31.18,29.45-59.13,51.49-83.09c21.83-23.73,47.17-42.33,75.32-55.28
	C222.22,54.24,252.9,47.5,284.5,47.5 M284.5,9.5c-151.88,0-275,133.87-275,299s123.12,299,275,299s275-133.87,275-299
	S436.38,9.5,284.5,9.5L284.5,9.5z"/>
<path d="M285.51,610.57c-2.19,0-4.37,0.93-5.89,2.74l-26.8,31.91c-3.32,3.96-0.37,9.79,4.5,9.79c0.33,0,0.67-0.03,1.02-0.08
	l57.13-9.3c5.06-0.82,6.78-7.24,2.81-10.48l-27.91-22.83C288.94,611.14,287.22,610.57,285.51,610.57L285.51,610.57z"/>
<path d="M298.94,1010.5c-3.07,0-6.14-1.17-8.49-3.51c-4.69-4.69-4.69-12.28,0-16.97c23.29-23.29,33.49-46.89,30.31-70.14
	c-6.48-47.35-64.56-80.59-65.15-80.93l-1.43-0.81l-1.16-1.16c-15.73-15.73-23.48-37.25-23.04-63.96
	c0.33-20.04,5.33-43.11,14.84-68.58c15.87-42.46,38.73-76.98,39.69-78.43c3.67-5.51,11.12-7.01,16.64-3.33
	c5.51,3.67,7.01,11.12,3.34,16.64l0,0c-0.22,0.34-22.46,33.97-37.32,73.89c-12.69,34.1-22.55,79.91,1.79,105.76
	c10.56,6.3,68.08,42.93,75.57,97.66c4.25,31.08-8.23,61.48-37.12,90.36C305.08,1009.33,302.01,1010.5,298.94,1010.5z"/>
</svg>
