<?xml version="1.0" encoding="utf-8"?>
<!-- Generator: Adobe Illustrator 24.0.2, SVG Export Plug-In . SVG Version: 6.00 Build 0)  -->
<svg version="1.1" id="Layer_1" xmlns="http://www.w3.org/2000/svg" xmlns:xlink="http://www.w3.org/1999/xlink" x="0px" y="0px"
	 viewBox="0 0 939.7 948.6" style="enable-background:new 0 0 939.7 948.6;" xml:space="preserve">
<style type="text/css">
	.st0{fill:#635208;}
	.st1{fill:#D3BB54;}
	.st2{fill:#332901;}
</style>
<polygon class="st0" points="186.4,847.5 229.9,931 477.9,758.7 591.9,829.1 738,931 762.4,898 670.2,616 922.5,426.4 869.3,318.5 
	581.4,318.5 469.9,22.6 433.5,22.6 344.8,311.5 28,318.5 39,380.6 85.5,455.9 246,577.8 212.2,730.9 "/>
<polygon class="st1" points="186.4,847.5 454.2,678.7 705,847.5 743.6,840.6 644.1,537.7 900.7,353.3 869.3,318.5 581.4,318.5 
	469.9,22.6 433.5,22.6 344.8,311.5 28,318.5 39,380.6 246,516.9 263,550.3 181.2,802 "/>
<path class="st2" d="M937.6,408.9c-0.2-0.8-0.4-1.5-0.7-2.3l-31.2-79.8c-6.2-17.2-21.9-28.1-40.3-28.1H587.6l-61.3-188.6
	c-1.3-3.9-3-7.4-5.2-10.7L495,29c-0.3-0.8-0.7-1.6-1.1-2.4C487.3,10.3,472,0,454.2,0c-18.9,0-34.9,11.6-40.8,29.6l-86.6,266.4
	c-0.5,1.6-2,2.7-3.7,2.7H43C24,298.8,8,310.4,2.2,328.4c-3.6,11.1-2.7,22.4,2.1,32.1l33.3,82.6c0.6,1.4,1.3,2.8,2.2,4l-0.3,0.2
	c2.7,3.6,5.9,6.9,9.6,9.6l182.4,132.5l-72.3,222.5c-3.8,11.7-2.5,23.8,3.1,33.9l27.7,70.9l-0.2,0c3.6,13.7,13.9,24.7,27.4,29.5
	c13.4,4.7,27.7,2.6,39.3-5.8l226.6-164.7c1.4-1,3.2-1,4.6,0l226.6,164.7c7.7,5.6,16.4,8.3,25.2,8.3c8.8,0,17.5-2.8,25.2-8.3
	c15.3-11.1,21.4-30,15.6-48l-86.6-266.4c-0.5-1.6,0-3.4,1.4-4.3L922,456.8C937.2,445.8,943.3,426.7,937.6,408.9z M72.7,425.8
	l-5.4-13.5L244.4,541c1.4,1,1.9,2.7,1.4,4.3l-1.6,5L72.7,425.8z M196.3,823.9l86.6-266.4c5.8-17.7-0.5-37-15.6-48L40.7,344.8
	c-0.3-0.2-0.7-0.5-1.1-1l-0.5-1.3c-0.1-0.5-0.1-1.2,0.2-2c0.9-2.7,2.9-2.7,3.7-2.7h280.2c18.6,0,35-11.9,40.8-29.6l86.6-266.4
	c0.2-0.7,0.9-2.7,3.7-2.7s3.5,2,3.7,2.7l86.6,266.4c5.8,17.7,22.1,29.6,40.8,29.6h280.1c0.7,0,2.6,0,3.5,2.2l0,0.1
	c0,0.1,0.1,0.2,0.1,0.4c0.9,2.7-0.8,3.9-1.4,4.4L641,509.5c-15.1,11-21.3,30.2-15.6,48L712,823.9c0.2,0.7,0.9,2.7-1.4,4.3
	c-2.3,1.7-4,0.5-4.6,0L479.4,663.5c-7.5-5.5-16.4-8.2-25.2-8.2c-8.8,0-17.7,2.7-25.2,8.2L202.3,828.2c-0.6,0.5-2.3,1.7-4.6,0
	C195.5,826.6,196.1,824.6,196.3,823.9z M742,908.7c-2.3,1.7-4,0.5-4.6,0L510.7,744c-15.1-11-35.3-11-50.4,0L233.7,908.7
	c-1.2,0.9-2.2,1-3.4,0.6c-1-0.4-1.9-1.1-2.4-1.9c-0.2-1.3-0.6-2.5-1-3.7l-14.6-37.4c4.5-1.4,8.9-3.5,13-6.5l226.6-164.7
	c1.4-1,3.2-1,4.6,0l226.7,164.7c14.1,10.2,31.9,11,46.6,2.5l13.7,42.1C743.6,905.1,744.2,907,742,908.7z M899,425.3L676.2,587.2
	l-13.6-41.9c-0.5-1.6,0-3.4,1.4-4.3l220.8-160.4l15.4,39.3L900,420c0.1,0.2,0.2,0.5,0.3,0.7C901.4,423.6,899.6,424.9,899,425.3z"/>
</svg>
