<?xml version="1.0" encoding="utf-8"?>
<!-- Generator: Adobe Illustrator 24.0.2, SVG Export Plug-In . SVG Version: 6.00 Build 0)  -->
<svg version="1.1" id="Layer_1" xmlns="http://www.w3.org/2000/svg" xmlns:xlink="http://www.w3.org/1999/xlink" x="0px" y="0px"
	 viewBox="0 0 896 864" style="enable-background:new 0 0 896 864;" xml:space="preserve">
<style type="text/css">
	.st0{fill:#473112;}
	.st1{fill:#CB9A33;}
	.st2{fill:#EDC17C;}
	.st3{fill:#815723;}
	.st4{fill:#A42222;}
</style>
<g>
	<path class="st0" d="M785.72,597.82c0.02,2.76,1.42,3.71,4.15,4.43c51.28,13.45,89.01,54.83,95.53,107.37
		c5.26,42.32-8.68,78.74-39.7,108.18c-20.23,19.19-44.78,29.19-72.23,33.1c-47.93,6.83-96.07,9.61-144.41,7.77
		c-71.53-2.73-141.48-14.9-209.65-36.82c-110.58-35.56-208.66-92.68-294.27-171.2c-35.2-32.29-66.9-67.77-95.93-105.62
		c-57.91-75.5-13.39-187.4,80.7-202.71c29.59-4.82,57.65,0.49,83.53,15.89c2.84,1.69,4.96,2.11,7.42-0.08
		c1.12,1.44,2.2,2.91,3.35,4.33c10.51,12.95,18.56,27.65,28.94,40.68c6.63,8.32,13.51,16.49,23.54,21.08l0.08-0.03
		c0.39,0.31,0.78,0.62,1.17,0.93c1.11,0.98,2.33,1.87,3.31,2.97c9.32,10.43,19.06,20.46,29.27,30.02
		c8.83,8.28,17.44,16.83,27.42,23.81c5.61,5.7,11.35,11.25,18.51,15.04c0.71,0.67,1.36,1.51,2.54,1.09l-0.07-0.06
		c-0.02,1.91,1.75,2.27,2.85,3.08c27.93,20.58,57.57,38.32,88.98,53.08c75.82,35.62,155.64,52.42,239.35,50.77
		c10.28-0.2,20.6-0.23,30.78-2.12c2.02,0.72,4.05,1.44,6.07,2.17c17.08,6.13,34.48,7.73,52.34,4.03
		C768.87,607,777.36,602.6,785.72,597.82z M660.32,773.93c7.03,0,16.04,0.25,25.02-0.07c9.1-0.33,18.18-1.38,27.28-1.83
		c18.06-0.9,35.93-3.39,53.8-5.99c22.77-3.32,39.13-25.31,33.84-50.48c-4.24-20.16-24.19-38.03-51.43-32.43
		c-20,4.11-40.37,6.06-60.69,6.53c-27.57,0.64-55.18,1.2-82.78-1.49c-19.14-1.87-38.2-4.2-57.11-7.48
		c-25.83-4.48-51.26-10.88-76.24-18.88c-33.78-10.83-66.5-24.21-97.95-40.7c-22.41-11.75-44.1-24.63-64.94-38.99
		c-38.49-26.5-73.53-56.89-105.07-91.4c-14.24-15.58-27.33-32.08-40.6-48.46c-9.8-12.1-23.07-18.27-38.35-15.83
		c-33.28,5.31-47.61,41.15-27.64,68.17c14.8,20.04,30.88,39.11,48.05,57.15c15.48,16.27,31.5,32.01,48.41,46.86
		c21.12,18.55,43.13,35.92,66.28,51.8c37.95,26.03,77.98,48.3,120.33,66.45c31.06,13.31,62.78,24.61,95.44,33.25
		c29.82,7.89,59.91,14.32,90.57,18.11c14.47,1.79,28.96,3.27,43.46,4.61C626.05,774.3,642.21,774.12,660.32,773.93z"/>
	<path class="st1" d="M785.72,597.82c-8.36,4.78-16.85,9.19-26.42,11.17c-17.85,3.7-35.26,2.1-52.34-4.03
		c-2.02-0.73-4.05-1.44-6.07-2.17c-0.98-6.38-1.98-12.75-2.95-19.13c-4.04-26.68-8.07-53.37-12.11-80.05
		c-3.32-21.93-6.62-43.87-9.99-65.8c-2.87-18.65-5.85-37.29-8.75-55.93c-2.06-13.25-4.12-26.51-6.12-39.77
		c-2.56-17.03-5.01-34.07-7.6-51.09c-2.06-13.58-4.31-27.14-6.39-40.72c-2.93-19.15-5.78-38.3-8.65-57.46
		c-2.16-14.41-4.26-28.83-6.47-43.23c-1.17-7.65-2.51-15.29-3.93-23.9c-6.22,5-11.72,9.47-17.27,13.88
		c-27.16,21.6-54.37,43.14-81.48,64.8c-29.19,23.31-58.25,46.79-87.44,70.1c-28.8,23-57.71,45.86-86.53,68.84
		c-29.73,23.7-59.47,47.38-89.01,71.32c-3.42,2.77-8.48,4.29-9.51,9.57c-10.03-4.59-16.91-12.76-23.54-21.08
		c-10.38-13.02-18.44-27.73-28.94-40.68c-1.15-1.42-2.24-2.89-3.35-4.33c16.32-13.16,32.58-26.38,48.96-39.47
		c55.81-44.59,111.65-89.12,167.48-133.69c71.05-56.72,142.12-113.41,213.1-170.2c13.54-10.83,28.34-13.81,44.39-7.39
		c16.11,6.44,24.48,19.16,27.03,36.12c7.89,52.45,15.92,104.87,23.85,157.32c8.48,56.06,16.86,112.14,25.36,168.2
		c7.15,47.18,14.43,94.34,21.6,141.51C777.05,539.61,781.36,568.72,785.72,597.82z"/>
	<path class="st2" d="M256.71,424.21c1.03-5.28,6.09-6.8,9.51-9.57c29.54-23.94,59.28-47.62,89.01-71.32
		c28.82-22.98,57.73-45.83,86.53-68.84c29.19-23.31,58.25-46.78,87.44-70.1c27.11-21.66,54.32-43.19,81.48-64.8
		c5.55-4.41,11.05-8.88,17.27-13.88c1.42,8.61,2.76,16.24,3.93,23.9c2.2,14.4,4.31,28.82,6.47,43.23
		c2.87,19.15,5.72,38.31,8.65,57.46c2.08,13.58,4.32,27.14,6.39,40.72c2.59,17.02,5.04,34.06,7.6,51.09
		c2,13.26,4.05,26.52,6.12,39.77c2.9,18.65,5.88,37.28,8.75,55.93c3.37,21.93,6.67,43.86,9.99,65.8
		c4.04,26.68,8.07,53.37,12.11,80.05c0.97,6.38,1.96,12.76,2.95,19.13c-10.18,1.89-20.51,1.91-30.78,2.12
		c-83.71,1.66-163.53-15.14-239.35-50.77c-31.42-14.76-61.05-32.5-88.98-53.08c-1.1-0.81-2.87-1.18-2.85-3.08
		c1.29,0.23,2.6,0.41,3.88,0.71c31.19,7.33,58.88-20.36,50.49-50.68c-4.65-16.78-15.79-27.33-32.85-30.36
		c-16.59-2.95-30.74,2.58-40.74,16.31c-9.86,13.52-10.48,28.27-3.55,43.41c0.68,1.49,1.95,2.74,1.81,4.55
		c-9.97-6.97-18.58-15.53-27.42-23.81c-10.2-9.56-19.95-19.59-29.27-30.02c-0.98-1.1-2.2-1.98-3.31-2.97
		c-0.39-0.31-0.78-0.62-1.17-0.93L256.71,424.21z M422.96,362.73c-0.02,23.28,18.4,42.04,41.2,41.95
		c23.06-0.09,41.66-18.66,41.67-41.61c0.01-22.98-18.88-41.93-41.57-41.71C441.3,321.58,422.98,339.94,422.96,362.73z M614.91,449
		c23.13,0.01,41.73-18.36,41.88-41.35c0.15-22.66-18.86-41.62-41.73-41.63c-22.83-0.01-41.22,18.37-41.26,41.22
		C573.78,430.75,591.73,448.98,614.91,449z M568.46,249.91c-23.17,0.02-41.58,18.43-41.51,41.51c0.07,22.58,18.72,41.26,41.38,41.46
		c22.99,0.2,41.64-18.67,41.6-42.1C609.9,267.89,591.63,249.89,568.46,249.91z M589.07,490.19c1.46-18.88-14.31-41.5-40.94-42.01
		c-23-0.44-41.93,18.72-41.86,41.85c0.06,22.76,18.52,41.05,41.46,41.08C570.92,531.14,589.02,513.22,589.07,490.19z"/>
	<path class="st3" d="M660.32,773.93c-18.11,0.2-34.27,0.37-50.34-1.12c-14.5-1.34-28.99-2.82-43.46-4.61
		c-30.66-3.79-60.75-10.23-90.57-18.11c-32.66-8.64-64.38-19.94-95.44-33.25c-42.35-18.14-82.39-40.42-120.33-66.45
		c-23.15-15.88-45.16-33.25-66.28-51.8c-16.91-14.85-32.93-30.59-48.41-46.86c-17.17-18.04-33.24-37.11-48.05-57.15
		c-19.96-27.02-5.63-62.86,27.64-68.17c15.28-2.44,28.55,3.74,38.35,15.83c13.27,16.38,26.36,32.87,40.6,48.46
		c31.54,34.51,66.59,64.89,105.07,91.4c20.85,14.36,42.53,27.24,64.94,38.99c31.46,16.48,64.18,29.87,97.95,40.7
		c24.98,8.01,50.41,14.4,76.24,18.88c18.91,3.28,37.97,5.61,57.11,7.48c27.59,2.69,55.2,2.14,82.78,1.49
		c20.32-0.47,40.69-2.42,60.69-6.53c27.24-5.6,47.19,12.27,51.43,32.43c5.29,25.17-11.07,47.16-33.84,50.48
		c-17.87,2.6-35.74,5.1-53.8,5.99c-9.1,0.45-18.18,1.51-27.28,1.83C676.35,774.18,667.35,773.93,660.32,773.93z"/>
	<path class="st4" d="M317.95,481.91c0.14-1.81-1.13-3.07-1.81-4.55c-6.93-15.14-6.3-29.89,3.55-43.41
		c10-13.72,24.15-19.25,40.74-16.31c17.06,3.03,28.21,13.58,32.85,30.36c8.39,30.32-19.29,58.01-50.49,50.68
		c-1.28-0.3-2.58-0.47-3.88-0.71c0,0,0.07,0.06,0.07,0.06c-0.51-1.15-1.61-0.92-2.54-1.09C329.3,493.16,323.56,487.61,317.95,481.91
		z"/>
	<path class="st2" d="M336.46,496.95c0.93,0.17,2.03-0.06,2.54,1.09C337.82,498.46,337.17,497.62,336.46,496.95z"/>
	<path class="st1" d="M256.79,424.19c0.39,0.31,0.78,0.62,1.17,0.93C257.57,424.81,257.18,424.5,256.79,424.19z"/>
	<path class="st4" d="M422.96,362.73c0.02-22.79,18.34-41.15,41.29-41.37c22.69-0.22,41.57,18.73,41.57,41.71
		c-0.01,22.94-18.61,41.52-41.67,41.61C441.36,404.77,422.93,386.01,422.96,362.73z"/>
	<path class="st4" d="M614.91,449c-23.18-0.01-41.13-18.25-41.1-41.75c0.03-22.86,18.42-41.23,41.26-41.22
		c22.87,0.01,41.87,18.97,41.73,41.63C656.64,430.64,638.04,449.01,614.91,449z"/>
	<path class="st4" d="M568.46,249.91c23.17-0.02,41.44,17.99,41.48,40.88c0.04,23.43-18.61,42.3-41.6,42.1
		c-22.67-0.2-41.31-18.88-41.38-41.46C526.88,268.34,545.29,249.92,568.46,249.91z"/>
	<path class="st4" d="M589.07,490.19c-0.05,23.03-18.15,40.94-41.34,40.92c-22.94-0.03-41.4-18.32-41.46-41.08
		c-0.06-23.12,18.86-42.28,41.86-41.85C574.76,448.69,590.53,471.31,589.07,490.19z"/>
</g>
</svg>
