<?xml version="1.0" encoding="utf-8"?>
<!-- Generator: Adobe Illustrator 24.0.3, SVG Export Plug-In . SVG Version: 6.00 Build 0)  -->
<svg version="1.1" xmlns="http://www.w3.org/2000/svg" xmlns:xlink="http://www.w3.org/1999/xlink" x="0px" y="0px"
	 viewBox="0 0 200.93 200.93" style="enable-background:new 0 0 200.93 200.93;" xml:space="preserve">
<style type="text/css">
	.st0{display:none;opacity:0.38;}
	.st1{display:inline;}
	.st2{fill:#53A057;}
	.st3{fill:#CC4C56;}
	.st4{fill:#1F4922;}
	.st5{fill:#A21D21;}
</style>
<g id="Layer_1" class="st0">
	<g class="st1">
		<path d="M100.6-84.1C-1.26-84.1-83.9-1.46-83.9,100.4c0,101.86,82.64,184.5,184.5,184.5c101.86,0,184.5-82.64,184.5-184.5
			C285.1-1.46,202.46-84.1,100.6-84.1L100.6-84.1z M100.6-76.41c97.68,0,176.81,79.13,176.81,176.81
			c0,97.69-79.13,176.81-176.81,176.81c-97.69,0-176.81-79.13-176.81-176.81C-76.22,2.72,2.91-76.41,100.6-76.41L100.6-76.41z
			 M141.46,0.44c-1.62,0.03-3.06,1.08-3.57,2.61c-0.51,1.56,0.02,3.28,1.31,4.27c0,0,0.06,0.05,0.06,0.08
			c1.38,1.65,1.29,4.93-1.47,7.69l-3.6,3.64c-3.12-5.04-6.79-9.79-11.02-14.05c-0.18-0.18-0.36-0.33-0.58-0.45
			c-0.11-0.11-0.18-0.3-0.33-0.41c-0.71-0.75-1.71-1.18-2.76-1.18c-1.05,0-2.05,0.42-2.76,1.18c-1.47,1.5-1.44,3.93,0.08,5.44
			c4.06,4.05,4,10.62-0.36,14.95L93.21,47.46c-0.06,0.06-0.12,0.12-0.18,0.22l-0.12,0.08l-1.44,1.44c-0.32,0.33-0.6,0.69-0.81,1.11
			c-8.86,10.54-12.13,24.84-8.44,38.32c1.65,6.06,4.63,11.53,8.53,16.21l-34.09,34.09c-0.09-1.18-0.24-2.35-0.54-3.48
			c-0.93-3.43-3.1-6.52-5.77-9.83c-2.67-3.3-5.86-6.69-8.98-9.82c-6.22-6.19-12.1-11.17-12.1-11.17c-1.54-1.29-3.81-1.2-5.2,0.24
			c-0.42,0.39-0.72,0.87-0.93,1.38c0,0-2.59,7.26-4.87,15.76c-1.17,4.23-2.22,8.77-2.85,12.98c-0.66,4.2-1.02,7.96-0.09,11.38
			c2.34,8.71,9.88,14.63,18.38,15.47L1.8,193.77c-0.98,0.98-1.41,2.4-1.04,3.75c0.33,1.35,1.41,2.4,2.73,2.76
			c1.35,0.33,2.79-0.06,3.75-1.05l56.37-56.37c0.81,8.5,6.72,16.07,15.46,18.41c3.4,0.9,7.15,0.54,11.36-0.09
			c4.2-0.66,8.73-1.71,12.97-2.88c8.5-2.28,15.74-4.89,15.74-4.89c1.2-0.42,2.1-1.38,2.44-2.61c0.33-1.21,0.02-2.5-0.78-3.46
			c0,0-4.98-5.88-11.17-12.1c-3.12-3.12-6.52-6.33-9.82-9.01c-3.31-2.64-6.4-4.8-9.82-5.74c-1.14-0.3-2.32-0.44-3.45-0.57l9.64-9.67
			c4.68,3.91,10.15,6.91,16.21,8.53c13.49,3.69,27.75,0.44,38.29-8.41c0.41-0.21,0.81-0.48,1.14-0.84l1.56-1.57
			c0.09-0.05,0.19-0.15,0.27-0.24l23.22-23.21c4.32-4.33,10.9-4.39,14.95-0.33c0.99,0.99,2.41,1.41,3.76,1.05
			c1.35-0.33,2.4-1.41,2.76-2.73c0.33-1.35-0.06-2.79-1.05-3.75c-0.14-0.15-0.33-0.25-0.47-0.39c-0.15-0.18-0.3-0.36-0.45-0.54
			c-4.29-4.26-9.1-7.83-14.23-10.81l3.81-3.81c2.88-2.88,6.43-2.88,7.99-1.32c0.06,0.06,0.11,0.09,0.14,0.12
			c0.03,0.06,0.06,0.09,0.12,0.12c0,0.02,0.03,0.02,0.03,0.05c0.09,0.03,0.14,0.09,0.21,0.15c0.21,0.12,0.39,0.24,0.6,0.36
			c0.03,0,0.09,0.03,0.12,0.03c0.03,0.03,0.06,0.05,0.09,0.05c0.05,0.03,0.15,0.06,0.24,0.09c0.24,0.09,0.48,0.12,0.72,0.18
			l0.03,0.03c0.02,0,0.02,0,0.02-0.03c0.03,0.03,0.06,0.03,0.09,0.03c0.09,0,0.18,0,0.27,0c0.27,0.02,0.52,0,0.78-0.03
			c0.06-0.03,0.15-0.03,0.24-0.06c0.06,0,0.09,0,0.15-0.03c0.03,0,0.05,0,0.11,0l0.03-0.03c0.18-0.09,0.39-0.15,0.57-0.24
			c0.09-0.06,0.22-0.16,0.3-0.22c0.09-0.03,0.15-0.05,0.22-0.11c0.21-0.16,0.36-0.3,0.54-0.52c0.03-0.03,0.09-0.05,0.12-0.11
			c0.03-0.03,0.03-0.03,0.06-0.06c0.05-0.09,0.08-0.18,0.15-0.27c0.03,0,0.06-0.03,0.06-0.06c0.06-0.09,0.12-0.18,0.15-0.24
			c0.03-0.03,0.06-0.06,0.09-0.09c0.75-1.5,0.45-3.34-0.75-4.47c-4.74-4.77-10.42-8.29-16.58-10.63c0.12-2.98-0.03-5.91-0.47-8.68
			c-0.58-3.51-1.41-6.66-2.11-9.01c-0.69-2.31-1.26-3.84-1.26-3.84c-0.41-1.01-1.2-1.83-2.22-2.22c0,0-1.53-0.57-3.88-1.26
			c-2.31-0.72-5.47-1.56-9.01-2.13c-2.25-0.36-4.65-0.54-7.09-0.54c-2.79-5.8-6.6-11.12-11.53-15.65c-0.24-0.27-0.42-0.6-0.68-0.87
			c-0.42-0.42-0.96-0.78-1.56-0.96C143,0.7,142.97,0.7,142.97,0.7c-0.49-0.18-0.96-0.27-1.48-0.27H141.46z M146.51,15.72
			c8.43,12.28,10.29,28.05,4.5,42.17c-1.77-0.06-3.54-0.03-5.29,0c-0.24-11.23-2.85-22.16-7.69-32.16l5.2-5.2
			C144.65,19.12,145.76,17.46,146.51,15.72L146.51,15.72z M126.75,21.21c7.87,11.98,11.89,26.16,11.35,40.69
			c-0.72,19.1-9.28,36.97-23.66,49.49v0.03c-5.8-1.59-10.96-4.63-15.14-8.65c-0.27-0.39-0.63-0.75-1.02-1.02
			c-4.02-4.18-7.02-9.34-8.62-15.11c-3.28-12.04,0.09-24.81,8.8-33.54l23.48-23.46C124.35,27.22,125.91,24.28,126.75,21.21
			L126.75,21.21z M159.84,26.11c0.96,0.09,1.86,0.06,2.82,0.21c3.04,0.49,5.95,1.23,8.02,1.86c1.05,0.31,1.08,0.36,1.62,0.55
			c0.21,0.57,0.24,0.63,0.57,1.65c0.6,2.07,1.35,4.95,1.84,8.02c0.3,1.74,0.44,3.51,0.48,5.22c-4.29-0.84-8.74-1.04-13.22-0.72
			C162.19,37.19,161.47,31.55,159.84,26.11L159.84,26.11z M163.9,50.43c7.27-0.33,14.3,1.29,20.51,4.57
			c-1.38,0.72-2.73,1.65-3.9,2.79l-5.62,5.62c-5.14-2.2-10.48-3.79-16.04-4.69c0.96-2.65,1.71-5.31,2.25-8.02
			C162.04,50.61,162.97,50.46,163.9,50.43L163.9,50.43z M149.37,65.45c10.71,0.3,21.11,3.42,30.18,8.98
			c-2.98,0.84-5.8,2.35-8.11,4.68l-23.27,23.28c-0.09,0.06-0.15,0.12-0.21,0.18l-0.12,0.12c-6.34,6.24-14.74,9.7-23.45,9.88
			c12.22-12.7,19.63-29.28,21.11-46.99C146.78,65.54,148.08,65.42,149.37,65.45L149.37,65.45z M28.65,114.55h0.03
			c2.19,1.92,3.57,3.03,7.3,6.76c3,2.94,6.03,6.18,8.41,9.12c2.37,2.98,3.99,5.83,4.32,7c1.2,4.5,0.03,9.04-2.79,12.32h-0.03
			c-0.87,0.99-1.95,1.83-3.12,2.55l-4.45-16.54c-0.33-1.32-1.35-2.37-2.67-2.77c-1.32-0.36-2.77,0-3.76,0.96
			c-0.98,0.99-1.38,2.44-0.98,3.78l4.44,16.55c-5.8-0.15-10.99-4-12.59-9.88c-0.3-1.18-0.3-4.47,0.27-8.23
			c0.57-3.75,1.56-8.07,2.67-12.13C27.09,118.96,27.74,117.31,28.65,114.55L28.65,114.55z M85.32,127.49
			c0.9,0.06,1.8,0.22,2.67,0.45c0.03,0,0.03,0,0.03-0.03c1.18,0.33,4.03,1.98,6.97,4.36c2.97,2.37,6.21,5.44,9.19,8.4
			c3.72,3.76,4.8,5.11,6.76,7.3c-2.77,0.93-4.41,1.56-9.49,2.94c-4.08,1.11-8.4,2.11-12.13,2.71c-3.75,0.57-7.06,0.57-8.23,0.24
			c-5.89-1.59-9.73-6.79-9.91-12.59l16.54,4.45c1.35,0.45,2.82,0.08,3.88-0.91c1.02-0.99,1.41-2.46,1.02-3.81
			c-0.42-1.38-1.53-2.4-2.91-2.7l-16.51-4.42c0.63-1.05,1.35-1.98,2.22-2.82l0.36-0.36c0.65-0.54,1.35-1.04,2.04-1.47
			C80.02,127.97,82.64,127.31,85.32,127.49L85.32,127.49z M85.32,127.49"/>
	</g>
</g>
<g id="Layer_2">
	<polygon class="st2" points="73.34,145.77 88.43,161.45 116.02,161.7 130.75,154.28 116.03,136.56 102.05,127.49 88.54,128.1 
		78.52,136.56 	"/>
	<polygon class="st2" points="34.84,142.07 19.29,140.06 10.18,119.57 8.37,96.78 21.6,96.78 38.63,109.5 48.72,123.67 
		44.49,139.47 	"/>
	<polygon class="st3" points="104.24,111.43 88.43,94.41 81.97,67.37 100.6,45.21 119.46,28.03 128.45,13.24 137.16,19.65 
		149.37,13.24 158.85,23.18 175.15,26.11 179.55,38.82 179.55,46.66 191.26,53.88 179.55,67.37 184.41,74.16 171.63,82.78 
		160.65,97.68 140.68,112.56 124.38,114.55 	"/>
	<g>
		<path class="st4" d="M5,200.93c-1.27,0-2.54-0.48-3.51-1.44c-1.96-1.94-1.99-5.11-0.05-7.07l89.76-90.94
			c1.94-1.97,5.11-1.99,7.07-0.05c1.96,1.94,1.99,5.11,0.05,7.07L8.56,199.45C7.58,200.44,6.29,200.93,5,200.93z"/>
		<path class="st4" d="M43.72,161.7c-2.25,0-4.3-1.53-4.85-3.82c-0.02-0.09-2.25-9.21-4.03-15.82c-1.07-3.99-9.13-15.62-14.51-22.61
			c-1.68-2.19-1.28-5.33,0.91-7.01c2.19-1.68,5.33-1.28,7.01,0.91c2.37,3.07,14.26,18.77,16.24,26.11
			c1.81,6.73,4.06,15.96,4.09,16.05c0.65,2.68-0.99,5.39-3.67,6.04C44.51,161.66,44.11,161.7,43.72,161.7z"/>
		<path class="st4" d="M104.24,152.51c-0.59,0-1.18-0.1-1.77-0.32c-12.63-4.78-26.24-7.77-29.13-6.42
			c-7.92,3.83-18.02,5.15-18.44,5.2c-2.74,0.35-5.24-1.59-5.59-4.33c-0.35-2.74,1.59-5.24,4.33-5.59c0.08-0.01,8.92-1.18,15.35-4.28
			c8.32-4.02,28.66,2.9,37.02,6.07c2.58,0.98,3.88,3.86,2.91,6.45C108.16,151.28,106.26,152.51,104.24,152.51z"/>
		<path class="st4" d="M30.74,150.06c-7.67,0-15.19-3.81-19.59-10.76c-3.4-5.38-5.73-16.57-6.78-25.26
			C1.96,94.08,5.8,91.65,7.64,90.48c1.76-1.11,5.87-3.71,22.82,7.08c7.31,4.65,16.35,11.57,19.79,17.01
			c3.3,5.22,4.38,11.42,3.02,17.45c-1.36,6.03-4.98,11.17-10.2,14.47C39.24,148.9,34.96,150.06,30.74,150.06z M13.68,99.92
			c-0.68,7.46,1.98,27.82,5.92,34.04c3.87,6.12,12,7.95,18.12,4.08c2.96-1.88,5.02-4.79,5.79-8.21c0.77-3.42,0.16-6.94-1.71-9.9v0
			C37.78,113.56,20.62,102.42,13.68,99.92z"/>
		<path class="st4" d="M99.78,168.02c-4.53,0-8.73-0.37-11.71-1.32h0c-5.89-1.88-10.69-5.94-13.52-11.43s-3.36-11.76-1.47-17.64
			c3.88-12.15,16.92-18.88,29.08-14.99c6.07,1.94,15.04,9.02,21.42,15c14.67,13.76,13.29,18.08,12.63,20.16
			c-0.63,1.98-2.11,6.62-22.04,9.23C109.74,167.6,104.58,168.02,99.78,168.02z M91.12,157.17c7.17,2.29,27.47-0.2,34.39-2.73
			c-4.27-6.16-19.39-20.05-26.4-22.29c-6.89-2.2-14.3,1.61-16.51,8.51c-1.07,3.34-0.77,6.9,0.84,10.02
			C85.05,153.8,87.78,156.1,91.12,157.17L91.12,157.17z"/>
	</g>
	<g>
		<path class="st5" d="M115.26,119.57c-2.65,0-9.15-0.52-16.15-5c-7.65-4.89-17.35-15.68-20.29-39.32
			c-0.98-4.05-1.48-18.99,31.29-46.15c1.39-1.16,3.3-1.47,5-0.81c0.96,0.37,23.49,9.33,28.56,31.17c4,17.22-4.07,36.89-23.97,58.47
			c-0.85,0.92-2.01,1.49-3.26,1.59C116.27,119.54,115.86,119.57,115.26,119.57z M116.02,114.55L116.02,114.55L116.02,114.55z
			 M88.54,72.81c0.17,0.35,0.09,0.35,0.16,0.88c3.74,31.08,19.69,35.29,25.15,35.81c16.43-18.32,23.19-34.38,20.08-47.78
			c-3-12.92-14.6-20.21-19.84-22.9C88.85,60.37,88.46,71.28,88.54,72.81z"/>
		<path class="st5" d="M124.33,121.07c-3.38,0-6.77-0.57-10.11-1.85c-2.58-0.99-3.87-3.88-2.88-6.46c0.99-2.58,3.88-3.87,6.46-2.88
			c17.72,6.8,41.77-17.92,49.73-28.23c2.1-3.26,4.55-5.72,7.3-7.37c-7.68-3.76-14.51-5.64-19.67-6.57
			c-9.21-1.66-15.23-0.75-15.29-0.74c-1.71,0.27-3.44-0.36-4.57-1.66c-1.13-1.3-1.52-3.1-1.01-4.75c4.42-14.33-0.95-28.06-6.97-37.8
			c-1.61,5.49-5.37,10.3-11.21,14.3c-2.28,1.56-5.39,0.98-6.95-1.29s-0.98-5.39,1.29-6.95c4.36-2.99,6.9-6.4,7.57-10.13
			c1.01-5.68-2.5-10.73-2.53-10.78c-1.48-2.09-1.15-4.97,0.77-6.66c1.93-1.69,4.8-1.66,6.68,0.07c0.32,0.29,7.85,7.32,14.2,18.32
			c7.23,12.51,10.03,25.19,8.25,37.06c10.18,0.14,29.96,2.93,51.24,19.54c2.17,1.7,2.56,4.83,0.87,7.01c-1.69,2.18-4.82,2.58-7,0.89
			c-0.01-0.01-4.03-2.96-8.11-2.2c-2.42,0.44-4.62,2.21-6.56,5.26c-0.08,0.12-0.16,0.24-0.25,0.35
			C174.43,89.1,149.68,121.07,124.33,121.07z"/>
		<path class="st5" d="M153.43,67.37c-0.76,0-1.53-0.17-2.25-0.54c-2.46-1.25-3.45-4.25-2.21-6.72c6.43-12.73,6.63-25.19,0.6-37.03
			c-0.87-1.71-1.82-3.29-2.77-4.72c-3.46,6.27-10.64,9.21-11.54,9.56c-2.57,1-5.47-0.28-6.47-2.85c-1-2.57,0.27-5.46,2.84-6.46
			c1.45-0.58,5.79-2.9,6.79-5.92c0.18-0.53,0.71-2.15-1.08-5.07c-1.27-2.07-0.87-4.74,0.94-6.35c1.81-1.61,4.52-1.69,6.42-0.18
			c0.32,0.26,32.15,26.01,13.19,63.55C157.02,66.37,155.26,67.37,153.43,67.37z"/>
		<path class="st5" d="M175.19,73.89c-1.16,0-2.32-0.4-3.27-1.22c-2.09-1.81-2.32-4.96-0.51-7.05c4.46-5.17,8.46-8.45,11.93-10.47
			c-1.53-0.7-3.27-1.38-5.22-1.96c-5.65-1.69-12-2.32-18.85-1.87c-2.53,0.16-4.79-1.59-5.25-4.08l-4.57-24.81
			c-0.3-1.65,0.24-3.34,1.44-4.5c1.21-1.16,2.91-1.65,4.55-1.29l20.82,4.58c1.3,0.29,2.43,1.08,3.15,2.2
			c0.28,0.44,6.21,9.94,4.97,21.32c10.1,3.79,14.85,9.27,15.41,9.95c1.57,1.9,1.52,4.65-0.11,6.5c-1.54,1.74-4.06,2.18-6.08,1.11
			c-1.41-0.42-6.57,0.54-14.62,9.86C177.99,73.3,176.59,73.89,175.19,73.89z M193.25,62.11L193.25,62.11z M193.25,62.1
			C193.25,62.1,193.25,62.1,193.25,62.1C193.25,62.1,193.25,62.1,193.25,62.1z M193.24,62.1C193.24,62.1,193.24,62.1,193.24,62.1
			C193.24,62.1,193.24,62.1,193.24,62.1z M163.51,41.18c3.82,0,7.51,0.31,11.04,0.92c0.13-4.9-1.57-9.29-2.67-11.6l-11.22-2.47
			l2.42,13.15C163.22,41.18,163.36,41.18,163.51,41.18z"/>
	</g>
</g>
</svg>
