<?xml version="1.0" encoding="utf-8"?>
<!-- Generator: Adobe Illustrator 24.0.3, SVG Export Plug-In . SVG Version: 6.00 Build 0)  -->
<svg version="1.1" xmlns="http://www.w3.org/2000/svg" xmlns:xlink="http://www.w3.org/1999/xlink" x="0px" y="0px"
	 viewBox="0 0 22 20" style="enable-background:new 0 0 22 20;" xml:space="preserve">
<style type="text/css">
	.st0{display:none;}
	.st1{fill:#919191;}
	.st2{fill:#212121;}
</style>
<g id="Layer_2" class="st0">
</g>
<g id="Layer_1">
	<polygon class="st1" points="4.14,18.58 13.37,19.04 16,15.57 16.85,8 16.85,1.49 12.09,1.49 0.94,1.49 0.94,5.61 0.94,12.83 
		2.5,16.12 	"/>
	<g>
		<path class="st2" d="M19,0H1C0.45,0,0,0.45,0,1v8.85C0,13.25,1.75,20,5.15,20h7.7c3.34,0,5.07-6.66,5.15-10h1c1.68,0,3-3.76,3-6
			C22,1.76,20.68,0,19,0L19,0z M16,9.85c0,2.29-0.86,8.15-3.15,8.15h-7.7C2.86,18,2,12.14,2,9.85V2h14V9.85z M19,8h-1V2h1
			c0.41,0,1,0.78,1,2C20,5.22,19.41,8,19,8L19,8z"/>
	</g>
</g>
</svg>
