<?xml version="1.0" encoding="utf-8"?>
<!-- Generator: Adobe Illustrator 24.0.3, SVG Export Plug-In . SVG Version: 6.00 Build 0)  -->
<svg version="1.1" id="Layer_2" xmlns="http://www.w3.org/2000/svg" xmlns:xlink="http://www.w3.org/1999/xlink" x="0px" y="0px"
	 viewBox="0 0 48 47.11" style="enable-background:new 0 0 48 47.11;" xml:space="preserve">
<style type="text/css">
	.st0{fill:#9DB5DE;}
	.st1{fill:#999999;}
	.st2{fill:#232323;}
</style>
<path class="st0" d="M2.77,39.04c0,0,2.43,8.21,11.93,7.4c0,0,6.07-1.12,7.07-5.73l1.98-1.47l1.18,0.67l1.77,2.86
	c0,0,6.8,6.3,13.25,2.27l4.42-4.33v-2.95l-3.17-2.88l-5.3-1.4h-3.68l-4.27,1.4L24,36.79l-4.52-2.13l-5.74-1.62L8.73,34.2l-3.02,0.9
	L2.77,39.04z"/>
<polygon class="st1" points="2.7,27 4.32,27.75 14.4,27.75 36.78,27 46.06,25.92 45.62,14.78 41.05,6.54 35.24,2.78 28.05,0.8 
	17.86,0.8 9.47,4.33 4.1,10.22 1.91,19.2 "/>
<path class="st2" d="M46.39,35.56h-2.68c-0.07,0-0.15,0.02-0.21,0.04c-2.05-1.81-5.38-2.89-9.05-2.89h-0.04
	c-2.93-0.12-5.81,0.75-8.17,2.47c-0.49,0.33-0.99,0.64-1.51,0.91c-0.64,0.2-1.33,0.2-1.96,0c-0.52-0.28-1.02-0.58-1.51-0.91
	c-2.37-1.72-5.25-2.59-8.17-2.47h-0.04c-3.88,0-7.39,1.19-9.4,3.2c-0.11,0.11-0.2,0.23-0.3,0.35h-1.9c-0.38,0-0.75,0.15-1.02,0.42
	C0.15,36.95,0,37.32,0,37.7v3.01c0,0.8,0.64,1.44,1.44,1.44h1.71c2.32,3.09,5.95,4.93,9.81,4.96c5.53,0,7.9-2.5,8.92-4.59
	c0.12-0.24,0.22-0.49,0.33-0.75c0.48-1.17,0.77-1.68,1.54-1.68c0.77,0,1.06,0.51,1.54,1.68c0.11,0.26,0.21,0.52,0.32,0.75
	c1.02,2.09,3.4,4.59,8.92,4.59c3.71-0.04,7.21-1.73,9.56-4.6h2.3c0.89,0,1.61-0.71,1.61-1.6v-3.74C48,36.28,47.28,35.56,46.39,35.56
	L46.39,35.56z M1.5,40.71l-0.06-2.95h0.95c-0.19,0.45-0.3,0.94-0.31,1.43c0.01,0.51,0.11,1.02,0.29,1.5L1.5,40.71z M34.54,45.61
	c-4.75,0-6.74-2.04-7.57-3.75c-0.1-0.21-0.19-0.43-0.29-0.66c-0.45-1.1-1.07-2.61-2.93-2.61c-1.86,0-2.48,1.51-2.93,2.61
	c-0.09,0.23-0.18,0.45-0.29,0.66c-0.83,1.71-2.82,3.75-7.57,3.75c-3.41,0-6.61-1.61-8.64-4.35c-0.03-0.17-0.12-0.33-0.25-0.44
	c-0.29-0.5-0.46-1.06-0.48-1.64c0.07-0.86,0.47-1.65,1.11-2.22c1.74-1.73,4.85-2.76,8.34-2.76h0.04c2.64-0.12,5.23,0.67,7.36,2.23
	c0.53,0.36,1.08,0.69,1.64,0.99c0.53,0.23,1.1,0.34,1.67,0.33c0.57,0.01,1.14-0.1,1.66-0.33c0.57-0.3,1.11-0.63,1.64-0.99
	c2.12-1.56,4.72-2.35,7.36-2.23h0.03c3.49,0,6.61,1.03,8.34,2.76c0.65,0.57,1.05,1.36,1.12,2.22c-0.04,0.73-0.28,1.43-0.71,2.03
	c-0.08,0.07-0.14,0.16-0.18,0.26C40.97,44.08,37.84,45.6,34.54,45.61L34.54,45.61z M46.5,40.91c0,0.03-0.01,0.06-0.03,0.07
	c-0.02,0.02-0.05,0.03-0.07,0.03h-1.41c0.27-0.57,0.41-1.19,0.43-1.82c-0.02-0.76-0.25-1.5-0.67-2.14h1.65
	c0.06,0,0.11,0.05,0.11,0.11V40.91z M2.15,27.75h3.49c0.51,0,0.92-0.41,0.92-0.92c0-0.51-0.41-0.92-0.92-0.92H3.07v-7.19
	c0-5.78,2.96-11.15,7.84-14.24c2.32,2.88,4.11,6.15,5.28,9.66c1.09,3.83,1.7,7.79,1.8,11.77h-9c-0.51,0-0.92,0.41-0.92,0.92
	c0,0.51,0.41,0.92,0.92,0.92h36.86c0.51,0,0.92-0.41,0.92-0.92v-8.11c-0.01-6.64-3.53-12.77-9.25-16.12l-0.01-0.01
	c-0.06-0.05-0.13-0.09-0.21-0.12C34.49,0.85,31.3,0,28.05,0h-8.1c-3.23,0-6.41,0.84-9.22,2.45c-0.09,0.03-0.17,0.08-0.24,0.14
	l0,0.01c-5.72,3.36-9.24,9.49-9.25,16.12v8.11C1.23,27.34,1.64,27.75,2.15,27.75L2.15,27.75z M28.05,1.84
	c2.57,0.01,5.11,0.6,7.41,1.74c-0.42,0.54-0.99,1.3-1.63,2.26c-0.28,0.42-0.17,0.99,0.25,1.27c0.43,0.28,1,0.16,1.28-0.26
	c0.69-1.05,1.31-1.86,1.72-2.36c4.88,3.09,7.84,8.46,7.85,14.24v7.19H30c0.11-3.98,0.71-7.94,1.8-11.77
	c0.52-1.65,1.2-3.25,2.03-4.77c0.17-0.29,0.17-0.65,0-0.93c-0.17-0.29-0.49-0.45-0.82-0.44C32.68,8,32.38,8.2,32.23,8.5
	c-0.89,1.63-1.62,3.34-2.18,5.11c-1.15,4.01-1.78,8.15-1.89,12.31h-8.33c-0.11-4.17-0.74-8.3-1.88-12.31
	c-1.2-3.64-3.03-7.04-5.41-10.04c2.31-1.14,4.84-1.74,7.41-1.74L28.05,1.84z M28.05,1.84"/>
</svg>
