<?xml version="1.0" encoding="utf-8"?>
<!-- Generator: Adobe Illustrator 24.0.3, SVG Export Plug-In . SVG Version: 6.00 Build 0)  -->
<svg version="1.1" id="Layer_2" xmlns="http://www.w3.org/2000/svg" xmlns:xlink="http://www.w3.org/1999/xlink" x="0px" y="0px"
	 viewBox="0 0 46.25 26.73" style="enable-background:new 0 0 46.25 26.73;" xml:space="preserve">
<style type="text/css">
	.st0{fill:#9F9E9F;stroke:#353535;stroke-miterlimit:10;}
	.st1{fill:#C58A2B;stroke:#725120;stroke-miterlimit:10;}
	.st2{fill:#EFE45A;}
</style>
<path class="st0" d="M44.56,20H1.69c-0.66,0-1.19,0.53-1.19,1.19c0,0.66,0.53,1.19,1.19,1.19h3.52v0.5c0,1.85,1.5,3.35,3.35,3.35
	h29.12c1.85,0,3.35-1.5,3.35-3.35v-0.5h3.52c0.66,0,1.19-0.53,1.19-1.19C45.75,20.54,45.21,20,44.56,20z"/>
<path class="st1" d="M41.87,17.18H6.19c-0.58,0-1.05,0.47-1.05,1.05v0c0,0.58,0.47,1.05,1.05,1.05h35.69c0.58,0,1.05-0.47,1.05-1.05
	v0C42.92,17.65,42.45,17.18,41.87,17.18z"/>
<path class="st1" d="M40.06,15.08H4.38c-0.58,0-1.05,0.47-1.05,1.05v0c0,0.58,0.47,1.05,1.05,1.05h35.69c0.58,0,1.05-0.47,1.05-1.05
	v0C41.11,15.55,40.64,15.08,40.06,15.08z"/>
<path class="st1" d="M41.87,12.98H6.19c-0.58,0-1.05,0.47-1.05,1.05v0c0,0.58,0.47,1.05,1.05,1.05h35.69c0.58,0,1.05-0.47,1.05-1.05
	v0C42.92,13.45,42.45,12.98,41.87,12.98z"/>
<path class="st1" d="M40.06,10.88H4.38c-0.58,0-1.05,0.47-1.05,1.05v0c0,0.58,0.47,1.05,1.05,1.05h35.69c0.58,0,1.05-0.47,1.05-1.05
	v0C41.11,11.35,40.64,10.88,40.06,10.88z"/>
<path class="st1" d="M41.87,8.78H6.19c-0.58,0-1.05,0.47-1.05,1.05v0c0,0.58,0.47,1.05,1.05,1.05h35.69c0.58,0,1.05-0.47,1.05-1.05
	v0C42.92,9.25,42.45,8.78,41.87,8.78z"/>
<path class="st1" d="M40.06,6.68H4.38c-0.58,0-1.05,0.47-1.05,1.05v0c0,0.58,0.47,1.05,1.05,1.05h35.69c0.58,0,1.05-0.47,1.05-1.05
	v0C41.11,7.15,40.64,6.68,40.06,6.68z"/>
<path class="st1" d="M41.87,4.59H6.19c-0.58,0-1.05,0.47-1.05,1.05v0c0,0.58,0.47,1.05,1.05,1.05h35.69c0.58,0,1.05-0.47,1.05-1.05
	v0C42.92,5.06,42.45,4.59,41.87,4.59z"/>
<path class="st1" d="M40.06,2.49H4.38c-0.58,0-1.05,0.47-1.05,1.05v0c0,0.58,0.47,1.05,1.05,1.05h35.69c0.58,0,1.05-0.47,1.05-1.05
	v0C41.11,2.96,40.64,2.49,40.06,2.49z"/>
<path class="st2" d="M25.47,0h-6.68c-0.58,0-1.05,0.47-1.05,1.05v0c0,0.58,0.47,1.05,1.05,1.05h6.68c0.58,0,1.05-0.47,1.05-1.05v0
	C26.52,0.47,26.05,0,25.47,0z"/>
</svg>
