<?xml version="1.0" encoding="utf-8"?>
<!-- Generator: Adobe Illustrator 24.0.3, SVG Export Plug-In . SVG Version: 6.00 Build 0)  -->
<svg version="1.1" id="Layer_1" xmlns="http://www.w3.org/2000/svg" xmlns:xlink="http://www.w3.org/1999/xlink" x="0px" y="0px"
	 viewBox="0 0 328.49 470.75" style="enable-background:new 0 0 328.49 470.75;" xml:space="preserve">
<style type="text/css">
	.st0{fill:#725622;}
	.st1{fill:#183F1D;}
	.st2{fill:#266733;}
	.st3{fill:#514118;}
</style>
<polygon class="st0" points="44.85,329.64 307.76,331.82 307.76,364.17 271.76,368.59 252.88,464.2 87.51,464.2 61.67,366.38 
	27.14,363.72 32.01,331.82 "/>
<polygon class="st1" points="84.35,329.59 258.39,331.82 285.76,312.73 312.16,264.37 255.88,289.18 287.03,245.92 305.16,171.14 
	233.58,239.55 255.88,142.19 254.57,104.64 198.26,164.14 185.85,73.46 162.31,19.37 138.44,158.42 99.31,105.92 102.49,212.09 
	51.58,150.78 57.91,207.3 83.72,284.73 13.4,224.91 8.31,244.32 24.22,278.68 "/>
<path class="st2" d="M179.22,335.86c-1.79,0-3.59-0.64-5.03-1.94c-3.07-2.78-3.31-7.52-0.53-10.59
	c12.81-14.15,25.9-52.16,15.53-152.83c-5.55-53.89-16.07-107.65-22.68-138.38c-21.66,113.15-33.27,243.38-4.52,291.2
	c2.13,3.55,0.99,8.16-2.56,10.29c-3.55,2.14-8.16,0.99-10.29-2.56c-41.21-68.54-5.22-264.27,6.79-322.63
	c1.01-4.89,5.2-8.36,10.19-8.42c4.99-0.04,9.27,3.29,10.4,8.15c4.63,19.87,20.31,90.18,27.59,160.81
	c8.78,85.23,2.28,140.55-19.33,164.43C183.3,335.03,181.26,335.86,179.22,335.86z"/>
<path class="st2" d="M205.8,336.46c-0.81,0-1.63-0.13-2.44-0.41c-3.92-1.35-6-5.61-4.65-9.53c23.74-69.04,43.73-164.36,49.91-212.53
	c-2.44,2.87-5.17,5.96-8.11,9.3c-12.43,14.08-27.91,31.61-37.08,50.82c-1.78,3.74-6.26,5.32-10,3.54c-3.74-1.78-5.32-6.26-3.54-10
	c10.07-21.11,26.32-39.51,39.37-54.29c7.29-8.26,13.59-15.39,16.23-20.19c2.39-4.35,7.4-6.4,12.17-5c4.82,1.42,7.94,5.91,7.59,10.92
	c-2.87,40.21-25.21,153.37-52.36,232.31C211.82,334.5,208.91,336.46,205.8,336.46z"/>
<path class="st2" d="M129.62,336.46c-3.11,0-6.02-1.95-7.09-5.06C97.62,258.97,91.46,160.99,88.5,113.9
	c-0.36-5.69-0.67-10.68-0.97-14.81c-0.36-5.03,2.77-9.55,7.63-10.98c4.76-1.41,9.74,0.64,12.13,4.97c1.35,2.46,2.87,5.17,4.52,8.13
	c8.74,15.66,20.7,37.11,34.19,65.55c1.77,3.74,0.18,8.22-3.56,9.99c-3.74,1.77-8.22,0.18-9.99-3.56
	c-10.84-22.87-20.72-41.2-28.68-55.59c3.04,47.99,9.48,140.67,32.94,208.91c1.35,3.92-0.74,8.18-4.65,9.53
	C131.25,336.33,130.42,336.46,129.62,336.46z"/>
<path class="st2" d="M135.4,335.91c-1.3,0-2.63-0.34-3.83-1.06c-41.01-24.41-69.4-66.33-82.08-121.24
	c-9.48-41.07-6.96-74.56-6.85-75.97c0.25-3.16,2.47-5.83,5.54-6.65c3.07-0.82,6.32,0.38,8.12,2.99l54.94,79.86
	c2.35,3.41,1.48,8.08-1.93,10.43c-3.41,2.35-8.08,1.48-10.43-1.93l-41.3-60.03c0.61,12.85,2.32,29.88,6.62,48.33
	c11.95,51.35,37.2,88.8,75.04,111.31c3.56,2.12,4.73,6.72,2.61,10.28C140.45,334.6,137.96,335.91,135.4,335.91z"/>
<path class="st2" d="M201.77,336.91c-2.76,0-5.41-1.52-6.72-4.16c-1.85-3.71-0.34-8.21,3.37-10.06
	c40.75-20.3,70.65-55.17,88.88-103.64c4.33-11.53,7.45-22.48,9.68-32.05c-2.34,3.41-4.83,6.95-7.45,10.54
	c-21.44,29.36-40.4,46.86-56.34,52.03c-3.94,1.28-8.17-0.88-9.45-4.82s0.88-8.17,4.82-9.45c26.19-8.49,62.95-65.49,74.91-86.73
	c1.7-3.03,5.26-4.49,8.6-3.53c3.34,0.96,5.58,4.08,5.43,7.55c-0.06,1.34-1.66,33.16-16.16,71.73
	c-19.32,51.41-52.6,90.06-96.23,111.79C204.03,336.65,202.89,336.91,201.77,336.91z"/>
<path class="st2" d="M82.38,336.08c-0.97,0-1.97-0.19-2.92-0.59c-42.4-17.94-61.71-47.35-70.44-68.85
	C-1.52,240.69-1.3,215.55,2.08,201.9c0.81-3.27,3.7-5.6,7.07-5.69c3.34-0.12,6.39,2.07,7.38,5.29
	c15.69,51.1,76.41,79.95,77.03,80.24c3.75,1.75,5.38,6.21,3.63,9.96c-1.75,3.75-6.2,5.38-9.96,3.63
	c-2.24-1.04-45.77-21.65-71.27-60.54c1.14,8.36,3.36,17.35,6.96,26.19c7.67,18.88,24.71,44.74,62.39,60.68
	c3.81,1.61,5.6,6.02,3.98,9.83C88.08,334.36,85.3,336.08,82.38,336.08z"/>
<path class="st2" d="M252.75,337.07c-3.73,0-6.97-2.79-7.43-6.59c-0.5-4.11,2.42-7.85,6.53-8.36c12.12-1.49,26.71-12.75,41.06-31.71
	c4.52-5.98,8.4-11.91,11.53-17.23c-28.05,18.55-75.23,48.54-77.86,50.21c-3.5,2.22-8.13,1.19-10.35-2.31
	c-2.22-3.5-1.19-8.13,2.31-10.35c29.39-18.67,87.25-55.77,95.86-62.54c4.93-3.87,9.11-1.78,10.27-1.05
	c1.89,1.19,4.86,4.14,3.44,10.48c-3.46,15.47-37.38,74.84-74.43,79.39C253.36,337.05,253.05,337.07,252.75,337.07z"/>
<path class="st3" d="M245.93,470.75H92.52c-8.82,0-15.81-5.53-16.39-12.76l-18.61-85.5H31.13c-5.62,0-10.19-4.57-10.19-10.19v-30.03
	c0-5.62,4.57-10.2,10.19-10.2h276.18c5.62,0,10.2,4.57,10.2,10.2v30.03c0,5.62-4.57,10.19-10.2,10.19h-26.39l-18.6,85.5
	C261.73,465.22,254.74,470.75,245.93,470.75z M90.93,455.48c0.35,0.13,0.88,0.26,1.59,0.26h153.41c0.7,0,1.24-0.13,1.59-0.26
	c0.01-0.03,0.01-0.06,0.02-0.08l18.04-82.91H72.87l18.04,82.91C90.92,455.42,90.92,455.45,90.93,455.48z M35.94,357.48H302.5v-20.41
	H35.94V357.48z"/>
</svg>
