<?xml version="1.0" encoding="utf-8"?>
<!-- Generator: Adobe Illustrator 24.0.2, SVG Export Plug-In . SVG Version: 6.00 Build 0)  -->
<svg version="1.1" id="Layer_1" xmlns="http://www.w3.org/2000/svg" xmlns:xlink="http://www.w3.org/1999/xlink" x="0px" y="0px"
	 viewBox="0 0 753.78 395.28" style="enable-background:new 0 0 753.78 395.28;" xml:space="preserve">
<style type="text/css">
	.st0{fill:#BC8B51;stroke:#563F00;stroke-width:24;stroke-miterlimit:10;}
	.st1{fill:#724B11;stroke:#302300;stroke-width:18;stroke-miterlimit:10;}
</style>
<g id="Layer_1_1_">
	<g>
		<path class="st0" d="M375.7,26.28c-164.11,0-302.92,108.3-348.86,257.33c-16.5,53.52,23.86,107.67,79.86,107.67h538
			c56,0,96.36-54.15,79.86-107.67C678.62,134.58,539.81,26.28,375.7,26.28z"/>
	</g>
</g>
<g id="Layer_3">
	<g>
		<path class="st1" d="M661.63,161.72c-8.64,13.25-27.96,15.09-38.08,3.13c-45.08-56.12-100.28-92.92-162.84-123.28
			c-15.64-7.36-12.88-29.44,0.92-38.64c10.12-6.44,21.16-7.36,31.28-0.92c64.4,38.64,133.4,76.36,173.95,138.17
			C667.95,147.57,666.28,155.34,661.63,161.72z"/>
		<path class="st1" d="M598.53,208.4c-8.46,13.37-30.78,13.03-44.04-1.23c-59.43-66.6-128.31-113.4-204.99-154.08
			c-19.14-9.92-18.61-33.63-3.63-41.97c11.02-5.78,23.79-5.44,36.38,2.81c79.84,49.92,164.93,99.4,219.77,171.65
			C604.17,193.75,603.17,202.01,598.53,208.4z"/>
		<path class="st1" d="M511.41,237.92c-8.45,13.38-31,12.86-44.51-1.57c-60.55-67.43-130.5-115.01-208.29-156.49
			c-19.42-10.12-19.06-33.96-3.99-42.23c11.09-5.73,24-5.29,36.78,3.1C372.45,91.54,458.8,141.94,514.75,215
			C516.99,223.23,516.05,231.53,511.41,237.92z"/>
		<path class="st1" d="M433.81,273.8c-8.45,13.38-31,12.86-44.51-1.57c-60.55-67.43-130.5-115.01-208.29-156.49
			c-19.42-10.12-19.06-33.96-3.99-42.23c11.09-5.73,24-5.29,36.78,3.1c81.05,50.81,167.4,101.21,223.35,174.27
			C439.39,259.11,438.45,267.41,433.81,273.8z"/>
		<path class="st1" d="M374,325.67c-8.43,13.4-31.27,12.67-45.08-1.99C267,255.25,195.73,206.71,116.59,164.24
			c-19.75-10.37-19.61-34.36-4.42-42.55c11.18-5.67,24.25-5.1,37.27,3.46c82.52,51.89,170.42,103.41,227.74,177.48
			C379.52,310.93,378.65,319.27,374,325.67z"/>
		<path class="st1" d="M260.85,338.14c-7.65,11.92-26.37,12.53-36.92,0.73c-47.17-55.22-103.08-92.91-165.79-124.99
			c-15.66-7.8-14.25-28.35-1.33-36.18c9.49-5.45,20.19-5.68,30.43,0.94c64.98,39.95,134.4,79.3,177.48,139.59
			C266.19,325.23,265.02,332.41,260.85,338.14z"/>
		<path class="st1" d="M144.75,341.71c-7.96,11.69-21.3,16.24-26.21,8.56c-21.39-36.39-52.73-56.12-90.07-69.66
			c-9.37-3.21-3.95-20.82,6.84-30.2c7.87-6.64,15.47-9.13,21.26-5.75c37.25,19.68,77.76,37.91,95.18,79.44
			C151.29,329.68,148.91,335.99,144.75,341.71z"/>
		<path class="st1" d="M716.33,331.71c-14.07,6.95-29.2,4.58-29.54-4.99c0.17-44.44-18.38-78.3-46.06-109.36
			c-7.06-7.62,7.92-21.33,23.36-24.72c11.14-2.29,19.72-0.85,23.3,5.16c20.86,31.72,44.62,63.64,46.33,102.2
			c0.62,14.06-6.02,26.44-17.18,31.61C716.47,331.64,716.4,331.67,716.33,331.71z"/>
		<path class="st1" d="M641.86,353.02c-14.1,6.88-28.71,5.65-28.51-2.73c2.64-39-13.54-67.67-38.78-93.38
			c-6.45-6.29,8.91-19.16,24.15-23c10.99-2.63,19.26-1.85,22.42,3.23c18.56,26.67,39.93,53.34,39.45,87.08
			c-0.18,12.3-7.34,23.54-18.51,28.69C642,352.95,641.93,352.98,641.86,353.02z"/>
		<path class="st1" d="M564.8,354.85c-14.13,6.8-23.37-1.25-22.46-8.1c5.82-32.02-12.05-45.77-34.16-64.61
			c-5.67-4.59,10.18-16.37,25.16-20.78c10.79-3.07,18.68-3.13,21.29,0.74c15.6,20.19,33.92,40.14,30.61,67.69
			c-1.2,10.05-9.04,19.81-20.22,24.95C564.94,354.78,564.87,354.82,564.8,354.85z"/>
		<path class="st1" d="M486.07,354.68c-14.18,6.69-24.61,0.74-22.85-4.24c9.7-23.51-2.47-29.45-20.76-39.9
			c-4.73-2.51,11.73-12.97,26.39-18.08c10.55-3.6,17.97-4.69,19.91-2.28c12,12.27,26.57,24.02,19.83,44.02
			c-2.46,7.29-11.11,15.26-22.3,20.39C486.21,354.61,486.14,354.64,486.07,354.68z"/>
	</g>
</g>
</svg>
