<?xml version="1.0" encoding="utf-8"?>
<!-- Generator: Adobe Illustrator 24.0.3, SVG Export Plug-In . SVG Version: 6.00 Build 0)  -->
<svg version="1.1" id="Layer_1" xmlns="http://www.w3.org/2000/svg" xmlns:xlink="http://www.w3.org/1999/xlink" x="0px" y="0px"
	 viewBox="0 0 85.95 60.31" style="enable-background:new 0 0 85.95 60.31;" xml:space="preserve">
<style type="text/css">
	.st0{fill:#EDE69A;}
	.st1{fill:#A5A5A5;}
	.st2{fill:#595959;}
	.st3{fill:#0E0F11;}
	.st4{fill:#2B4270;}
</style>
<g>
	<polygon class="st0" points="85.95,60.31 62.05,40.31 62.05,34.04 85.95,14.04 	"/>
	<path class="st1" d="M13,21.55c5.95,0,10.78-4.83,10.78-10.77C23.78,4.83,18.95,0,13,0C7.06,0,2.23,4.83,2.23,10.78
		C2.22,16.71,7.06,21.55,13,21.55L13,21.55z M13,21.55"/>
	<path class="st1" d="M43.56,10.49c-1.14-4.84-5.98-7.83-10.81-6.69c-4.83,1.14-7.83,5.98-6.69,10.81
		c1.14,4.83,5.98,7.83,10.81,6.69C41.7,20.16,44.69,15.32,43.56,10.49L43.56,10.49z M43.56,10.49"/>
	<polygon class="st2" points="50.07,30.43 50.07,43.92 64,49.89 64,24.46 	"/>
	<path class="st3" d="M45.83,23.21H3.13C1.41,23.21,0,24.62,0,26.34V50.6c0,1.73,1.41,3.13,3.13,3.13h42.7
		c1.72,0,3.13-1.4,3.13-3.13V29.87c0,0,0,0,0-0.01v-3.52C48.96,24.62,47.55,23.21,45.83,23.21L45.83,23.21z M35.73,47.73
		c0,0.58-0.47,1.04-1.04,1.04H14.27c-0.58,0-1.04-0.46-1.04-1.04V34.79c0-0.57,0.46-1.04,1.04-1.04h20.42
		c0.57,0,1.04,0.47,1.04,1.04V47.73z M35.73,47.73"/>
	<rect x="15.54" y="35.9" class="st4" width="17.88" height="10.59"/>
</g>
</svg>
