<?xml version="1.0" encoding="utf-8"?>
<!-- Generator: Adobe Illustrator 24.0.3, SVG Export Plug-In . SVG Version: 6.00 Build 0)  -->
<svg version="1.1" id="Layer_1" xmlns="http://www.w3.org/2000/svg" xmlns:xlink="http://www.w3.org/1999/xlink" x="0px" y="0px"
	 viewBox="0 0 194.8 170.4" style="enable-background:new 0 0 194.8 170.4;" xml:space="preserve">
<style type="text/css">
	.st0{fill:#356732;}
	.st1{fill:#FFCD34;}
	.st2{clip-path:url(#SVGID_2_);fill:#B58C1A;}
	.st3{clip-path:url(#SVGID_2_);fill:#062B04;}
	.st4{fill:#062B04;}
	.st5{fill:#B58C1A;}
</style>
<polygon class="st0" points="38.7,104.9 17.2,140.1 17.2,152.9 31.1,162.4 40.9,165 50.8,153.6 67.3,151.1 97.4,134.9 112.9,121.4 
	127.6,106.6 141.6,118.2 146.6,133.1 155,157.3 165.5,154 173,136.8 179.9,104.9 175.9,90 167.1,77.6 159.4,76.5 135.5,76.5 
	114.3,76.5 98.5,76.5 78.2,80.8 "/>
<polygon class="st0" points="50.5,68.9 67.4,50.8 79.8,35.9 63.6,35 35.5,42.5 17.2,51.9 41.3,60.8 "/>
<polygon class="st1" points="31.1,110.1 74.9,80.1 132.3,76.5 159.4,76.5 172.2,60.8 182.5,40 186.9,18.1 185.4,5.9 169.7,5.9 
	152.8,8.8 116.5,20.1 89.2,31.5 59.2,58 38,87.8 "/>
<g>
	<g>
		<g>
			<defs>
				<rect id="SVGID_1_" width="194.8" height="170.4"/>
			</defs>
			<clipPath id="SVGID_2_">
				<use xlink:href="#SVGID_1_"  style="overflow:visible;"/>
			</clipPath>
			<path class="st2" d="M192.2,5c-0.7-1.7-2.5-2.9-4.2-3.2c-21.5-4.1-69,5.5-103.9,28.8h-0.1c-2.6,3.9-7.7,5.2-11.2,8.1
				c0.1,0,0.3,0,0.4,0l-1.4,1.2C64,46.6,57.3,53,51,60c-0.1-0.1-0.1-0.1-0.2-0.2c-2.6,3.2-4,6.9-7.2,9.5c0,0,0,0,0,0
				c-12.3,16-21.8,34.9-28.9,62c1.8-0.4,3.4-2,4.3-2.9c3.9-11.6,10.6-22.3,20.1-30.3c4.5-9.8,9.8-17.8,15.3-24.8
				c0.7-0.6,1.4-1.5,1.8-2.3c7.4-9.3,15.8-16.9,24-24.2c30.3-26.5,79.6-37.6,101-35.8c1.1,11-10,38.5-23.9,59.2
				c4.4-0.4,8.1,1.2,12.5,2.2C183.2,51.7,197.8,18.3,192.2,5z"/>
			<path class="st3" d="M50.8,59.8c-5.6-5.7-14-9.1-24.8-9.7C38.2,44,56.3,37.7,72.8,38.7c3.5-3,8.6-4.3,11.2-8.1h-0.2
				C51.7,22.8,6.9,45.5,2.4,54.5c-1,1.7-0.8,3.8,0.7,5.2c1.4,1.5,3.9,2,6,1.8c10.2-1.7,27.5-2.9,34.5,7.8
				C46.8,66.7,48.1,63.1,50.8,59.8z"/>
			<path class="st3" d="M186.5,98.4c-1.8-10.8-7.4-19.5-16.9-25.6c0.1-0.1,0.2-0.3,0.2-0.4c-4.5-0.9-8.2-2.6-12.5-2.2
				c-0.1,0.2-0.3,0.4-0.4,0.6c-3.9,1.5-15.5,0.9-25,0.3c-20.1-1.2-45.1-2.6-64.1,7C57.3,83.6,47.4,90.6,39,98.5
				c0-0.1,0.1-0.2,0.1-0.3c-9.5,7.9-16.3,18.6-20.1,30.3c-0.9,0.9-2.5,2.5-4.3,2.9c0,0,0,0,0,0v1.2c-2.1,4.7-3.5,9.3-4.6,14
				c-0.7,2-1,5,1.8,8.7c5.3,7,20.8,14.9,26.8,14.9c5.3,0,9.2-4.4,13-8.7c1.4-1.5,3.2-3.8,4.2-4.6c28.2-2.9,44.7-18.1,62.3-34.1
				l2.5-2c2.1-2,2.1-5.2-0.3-7c-2.5-1.8-6.3-1.8-8.5,0.3l-2.5,2c-17.6,16-31.3,28.5-55.6,30.9c-4.9,0.6-8.1,4.1-12,8.4
				c-1,1.2-2.8,3.2-3.9,4.4c-4.6-1.4-15.1-7.6-16.2-10.5c0-0.3,0-0.6,0.4-0.6c3.5-18.1,19.4-45.1,52.1-61.7
				c15.5-7.9,38.4-6.4,56.7-5.5c13,0.9,23.2,1.5,29.9-0.9c7.4,5,11.6,11.3,13,19.8c3.2,17.5-7,39-15.1,52.1
				c-4.9-23-14.4-62.3-66.5-65.5c-3.2-0.3-6.3,1.8-6.3,4.7c-0.3,2.6,2.1,5.2,5.6,5.2c44.7,2.6,51.8,38.2,56.3,59.1
				c1.1,4.4,1.8,8.2,2.8,10.8c0.7,1.8,2.5,3.2,4.6,3.5h1.4c1.8,0,3.5-0.6,4.6-1.8C167.9,161.6,191.5,127,186.5,98.4z"/>
		</g>
	</g>
	<path class="st4" d="M91.1,106.6c-9.5,9-32.8,17.5-41.2,18.3c-3.2,0.3-5.6,2.9-5.3,5.5c0.3,2.6,2.8,4.4,6,4.4h0.7
		c12-1.2,37.7-10.8,48.9-21.6c2.1-2,1.8-5.2-0.7-7C97.1,104.3,93.2,104.6,91.1,106.6L91.1,106.6z"/>
	<path class="st5" d="M133.4,25.1l-0.7,0.3c-3.2,1.2-4.2,4.1-2.8,6.7c1.1,1.7,3.2,2.9,5.3,2.9c0.7,0,1.8,0,2.5-0.6l0.7-0.3
		c3.2-1.2,4.2-4.1,2.8-6.7c-0.6-1.2-1.8-2.1-3.3-2.6C136.4,24.4,134.8,24.5,133.4,25.1L133.4,25.1z"/>
	<path class="st5" d="M116.5,44.3c3.2-1.8,3.9-4.9,1.8-7.3c-1.8-2.3-5.6-2.9-8.4-1.2l-0.7,0.3c-2.8,1.5-3.5,4.7-1.4,7
		c1.1,1.5,3.2,2,4.9,2C114.3,45.2,115.4,44.9,116.5,44.3L116.5,44.3z"/>
	<path class="st5" d="M158,18.1c-3.5,0.6-5.3,3.2-4.6,5.8c0.7,2.3,3.2,3.8,6,3.8h1.4c3.2-0.6,5.3-3.2,4.6-5.8
		C164.7,19.2,161.5,17.5,158,18.1L158,18.1z"/>
	<path class="st5" d="M149.2,36.7c-2.8,1.5-3.5,4.7-1.4,7c1.1,1.5,3.2,2,4.9,2c1.1,0,2.5-0.3,3.5-0.9h0.4c2.8-1.5,3.2-4.7,1.4-6.7
		C155.9,35.8,152,35.3,149.2,36.7L149.2,36.7z"/>
	<path class="st5" d="M132.3,46.6c-3.2,1.8-3.9,4.9-2.1,7.3c1.1,1.5,3.2,2,4.9,2c1.1,0,2.5-0.3,3.5-0.9l0.3-0.3
		c2.8-1.5,3.5-4.7,1.4-7C138.6,45.5,134.8,44.9,132.3,46.6L132.3,46.6z"/>
	<path class="st5" d="M141.6,59.7c-3.2,1.8-3.9,4.9-2.1,7.3c1.1,1.5,3.2,2,4.9,2c1.1,0,2.5-0.3,3.5-0.9l0.3-0.3
		c2.8-1.5,3.5-4.7,1.4-7C147.9,58.5,144.1,57.9,141.6,59.7L141.6,59.7z"/>
	<path class="st5" d="M114.3,56.8c-2.8,1.5-3.5,4.7-1.4,7c1.1,1.5,3.2,2,4.9,2c1.2,0,2.5-0.3,3.5-0.9l0.3-0.3
		c2.8-1.5,3.2-4.7,1.4-6.7C121,55.7,117.2,55.1,114.3,56.8L114.3,56.8z"/>
	<path class="st5" d="M94.6,46.6l-0.7,0.3c-2.8,1.5-3.5,4.7-1.4,7c1.1,1.5,3.2,2,4.9,2c1.2,0,2.5-0.3,3.5-0.9l0.3-0.3
		c2.8-1.5,3.5-4.7,1.4-7C101.3,45.5,97.4,44.9,94.6,46.6L94.6,46.6z"/>
	<path class="st5" d="M79.8,59.6l-0.7,0.3c-2.8,1.5-3.5,4.6-1.4,7c1.1,1.5,3.2,2,4.9,2c1.2,0,2.5-0.3,3.5-0.9l0.3-0.3
		c2.8-1.5,3.5-4.7,1.4-7C86.5,58.4,82.6,57.8,79.8,59.6L79.8,59.6z"/>
</g>
</svg>
