<?xml version="1.0" encoding="utf-8"?>
<!-- Generator: Adobe Illustrator 24.0.2, SVG Export Plug-In . SVG Version: 6.00 Build 0)  -->
<svg version="1.1" id="Layer_1" xmlns="http://www.w3.org/2000/svg" xmlns:xlink="http://www.w3.org/1999/xlink" x="0px" y="0px"
	 viewBox="0 0 388 187.31" style="enable-background:new 0 0 388 187.31;" xml:space="preserve">
<style type="text/css">
	.st0{fill:#FFFF80;}
	.st1{fill:#775B04;}
</style>
<g>
	<path class="st0" d="M30.94,120.83c-8.36,0-10.87-24.24-10.87-24.24L9.2,92.4l-2.51,48.08l40.14-13.38l-3.34-16.31
		C43.48,110.79,39.3,120.83,30.94,120.83L30.94,120.83z M289.43,130.92c-0.48-0.49-1-1.04-1.78-1.85
		C287.65,129.06,288.57,130.03,289.43,130.92L289.43,130.92z M289.43,130.92c0.07,0.08,0.24,0.24,0.31,0.29
		C289.64,131.1,289.53,131.02,289.43,130.92L289.43,130.92z M84.14,112.6c-8.94-3.89-10.56-9.2-10.56-9.2l-22.29-2.51l-2.8,26.21
		l25.09-0.13l-0.55,21.61c2.8,24.25,36.51,32.87,36.51,32.87l177.82-3.34c0,0-129.32-12.26-170.59-13.38
		c-41.26-1.1-19.18-21.45-19.18-21.45l1.33-15.89l-13.88-0.44l20.85-0.11l181.74,2.22c-7.24-7.53-29.82-14.22-55.48-13.93
		C206.54,115.4,93.11,116.52,84.14,112.6L84.14,112.6z M356.51,79.44c-14.5,0.55-62.72-16.18-79.15-19.23c-16.46-3.06-56.6,0-95.9,0
		c-39.3,0-69.2,10.66-69.2,10.66c0,0,126.06,2.72,160.63,2.72c34.57,0,106.49,36.51,106.49,36.51V53.23
		C377.42,56.31,370.99,78.89,356.51,79.44L356.51,79.44z M104.53,73.59c0,0-6.69,7.24-12.26,5.57c-5.57-1.67,2.22-20.36,2.22-20.36
		c-12.54,0.84-21.45,35.7-21.45,35.7l25.24,2.25L104.53,73.59z M104.53,73.59"/>
	<path class="st1" d="M354.55,29.92c0.92,0,1.83-0.19,2.72-0.57c3.95-1.75,7.63-3.53,10.93-5.3c3.26-1.78,4.49-5.83,2.71-9.07
		c-1.75-3.24-5.8-4.47-9.04-2.72c-3.01,1.62-6.38,3.26-10.03,4.88c-3.37,1.49-4.89,5.44-3.4,8.81
		C349.53,28.46,351.99,29.92,354.55,29.92L354.55,29.92z M332.11,38.49c0.68,0,1.41-0.11,2.11-0.34c1.47-0.5,2.95-0.99,4.42-1.51
		c3.48-1.23,5.33-5.04,4.1-8.52c-1.22-3.47-5.02-5.3-8.52-4.1c-1.41,0.5-2.82,0.96-4.23,1.44c-3.5,1.17-5.41,4.96-4.24,8.46
		C326.7,36.71,329.31,38.49,332.11,38.49L332.11,38.49z M332.11,38.49"/>
	<path class="st1" d="M381.31,0c-3.69,0-6.69,3-6.69,6.69v93.47C341.83,79.55,278.54,67.58,275.51,67
		c-0.42-0.05-0.82-0.11-1.23-0.11H113.72c-7.47,0-17.69,15.37-21.43,26.76H78.76c4.11-15.13,16.83-40.14,34.97-40.14h160.55
		c0.42,0,0.81-0.05,1.23-0.11c0.39-0.07,10.13-1.91,24.01-5.33c3.59-0.86,5.78-4.49,4.89-8.08c-0.89-3.61-4.49-5.77-8.1-4.91
		c-11.58,2.85-20.36,4.6-22.66,5.04h-46.2v-6.69c0-3.69-3-6.69-6.69-6.69c-3.69,0-6.69,3-6.69,6.69v6.69h-26.76v-6.69
		c0-3.69-3-6.69-6.69-6.69c-3.69,0-6.69,3-6.69,6.69v6.69h-26.76v-6.69c0-3.69-3-6.69-6.69-6.69c-3.69,0-6.69,3-6.69,6.69v6.69
		h-20.07c-27.91,0-44.55,34.42-48.71,53.52H47.9L8.8,80.62c-2.03-0.68-4.28-0.34-6.03,0.91C1.02,82.81,0,84.83,0,86.97v53.52
		c0,2.14,1.02,4.15,2.77,5.43c1.18,0.84,2.53,1.26,3.92,1.26c0.7,0,1.44-0.11,2.11-0.34l39.12-13.04h16.67
		c2.72,24.59,11.58,53.52,47.46,53.52c3.69,0,6.69-3,6.69-6.69c0-3.69-3-6.69-6.69-6.69c-20.41,0-30.52-11.79-33.94-40.14h13.56
		c2.59,18.81,8.68,26.76,20.38,26.76H272.6c16.18,0,23.41-13.43,23.41-26.94c0.05-1.38,0.15-5.04-2.93-8.23
		c-3.32-3.43-9.12-4.96-18.81-4.96H53.52v-13.38h220.76c29.13,0,35.12,10.69,35.12,26.76c0,10.24-3.19,19.92-8.96,27.17
		c-6.72,8.36-16.59,12.96-27.83,12.96h-61.88c-3.69,0-6.69,3-6.69,6.69c0,3.69,3,6.69,6.69,6.69h61.88
		c15.37,0,28.92-6.38,38.29-17.98c7.65-9.67,11.89-22.29,11.89-35.54c0-27.02-15.86-40.14-48.5-40.14H106.54
		c2.53-5.57,6.55-11.27,8.86-13.38h158.25c22.81,4.31,83.94,19.18,102.93,38.18c1.28,1.28,2.98,1.96,4.73,1.96
		c0.86,0,1.72-0.15,2.56-0.49c2.51-1.05,4.13-3.51,4.13-6.2V6.69C388,3,385,0,381.31,0L381.31,0z M274.28,133.79
		c4.6,0,7.08,0.42,8.34,0.73c-0.11,3.74-1.33,12.65-10.01,12.65H112.05c-1.54,0-4.88,0-6.93-13.38H274.28z M13.38,96.24l26.76,8.91
		v17.11l-26.76,8.94V96.24z"/>
	<path class="st1" d="M184.54,173.93h-3.92c-3.69,0-6.69,3-6.69,6.69c0,3.69,3,6.69,6.69,6.69h3.92c3.69,0,6.69-3,6.69-6.69
		C191.23,176.93,188.23,173.93,184.54,173.93L184.54,173.93z M160,173.93h-22.87c-3.69,0-6.69,3-6.69,6.69c0,3.69,3,6.69,6.69,6.69
		H160c3.69,0,6.69-3,6.69-6.69C166.69,176.93,163.69,173.93,160,173.93L160,173.93z M160,173.93"/>
</g>
</svg>
