<?xml version="1.0" encoding="utf-8"?>
<!-- Generator: Adobe Illustrator 24.0.3, SVG Export Plug-In . SVG Version: 6.00 Build 0)  -->
<svg version="1.1" id="Layer_1" xmlns="http://www.w3.org/2000/svg" xmlns:xlink="http://www.w3.org/1999/xlink" x="0px" y="0px"
	 viewBox="0 0 243.38 243.1" style="enable-background:new 0 0 243.38 243.1;" xml:space="preserve">
<style type="text/css">
	.st0{fill:#054305;}
</style>
<path class="st0" d="M121.95,6.78c-64.62,0-117,52.38-117,117s52.38,117,117,117s117-52.38,117-117S186.57,6.78,121.95,6.78z
	 M120.95,216.78c-49.15,0-89-39.85-89-89s39.85-89,89-89s89,39.85,89,89S170.11,216.78,120.95,216.78z"/>
<g id="yLakRL_1_">
	<g>
		<path class="st0" d="M0,121.21C-0.23,54.65,54.26,0.28,121.49,0c66.6-0.27,121.65,54.11,121.9,120.42
			c0.25,67.71-53.76,122.44-121.1,122.68C54.46,243.34,0.24,189.3,0,121.21z M40.33,85.82c-0.77,0.13-1.82,0.64-2.26,0.32
			c-3.42-2.46-6.72-5.08-10.06-7.65c1.32-0.74,2.25-0.8,3.17-0.73c3.64,0.27,7.28,0.61,10.92,0.84c0.73,0.05,1.49-0.28,2.23-0.43
			c-0.26-0.73-0.45-1.5-0.79-2.2c-0.88-1.8-1.74-2.81-4.2-1.64c-1.57,0.74-3.87-0.06-5.85-0.16c-4.54-0.23-9.07-0.46-14.74-0.74
			c6.19,5.11,11.59,9.16,16.49,13.74c3.14,2.93,4.13,1.39,5.19-1.47l-0.06-0.19C40.36,85.52,40.33,85.82,40.33,85.82z M122.39,41.47
			c-13.52-0.24-25.51,3.88-37.22,10.01c-41.37,21.66-55.17,74.2-29.68,113.25c6.17,9.45,15.03,16.22,22.5,24.37
			c0.53,0.58,1.46,1.26,2.11,1.17c3.44-0.47,4.91,2.16,6.95,4c2.82,2.55,5.52,5.38,8.72,7.35c3.02,1.86,6.63,3.85,9.97,3.82
			c3.71-0.04,6.11,1.35,8.89,3.16c11.64,7.55,11.99,10.13,24.65-2.43c2.23-2.22,4.02-5.02,6.56-6.76
			c5.56-3.83,11.5-7.09,17.22-10.68c18.08-11.37,30.17-27.33,35.23-48.08c4.88-20.02,2.83-39.46-7.67-57.51
			C175.38,56.91,151.69,44.47,122.39,41.47z M230.12,121.66c5.53-3.27,5.57-3.66,0.96-8.25c-0.46-0.46-0.78-1.07-1.19-1.58
			c-1.78-2.22-3.76-2.76-5.77-0.4c-1.18,1.4-1.88,1.46-2.98-0.1c-1.27-1.79-3.01-1.96-4.67-0.41c-1.56,1.46-3.36,2.82-4.41,4.6
			c-0.62,1.05-0.57,3.47,0.19,4.16c1.81,1.65,1.33,2.28-0.1,3.81c-0.74,0.79-0.7,3.14-0.06,4.22c1.06,1.78,2.71,3.38,4.45,4.56
			c3.24,2.19,7.28-2.57,10.65,0.88c0.12,0.12,1.79-1.16,2.65-1.9c0.74-0.64,1.48-1.36,1.99-2.18c0.87-1.4,2.36-3.08,2.09-4.32
			C233.65,123.52,231.52,122.71,230.12,121.66z M27.74,121.52c0.95-0.46,2.54-0.73,3.09-1.62c0.7-1.15,1.25-3.26,0.66-4.17
			c-1.31-2-3.27-3.65-5.2-5.13c-0.7-0.54-2.67-0.65-3.05-0.16c-2.14,2.71-3.8,2.48-5.63-0.24c-0.21-0.32-1.47-0.4-1.8-0.1
			c-2.28,2.06-6.28,4.3-6.22,6.38c0.1,3.43,0.08,6.73-0.07,10.17c-0.09,2,3.67,5.84,5.78,5.9c3.5,0.11,7.04-0.28,10.65,0.15
			c1.1,0.13,2.66-2.21,3.74-3.62c1-1.31,2.49-3.08,2.21-4.29C31.62,123.55,29.44,122.76,27.74,121.52z M110.42,34.57
			c-4.09-5.42-8.14-10.83-12.25-16.2c-0.56-0.73-1.38-1.25-2.08-1.87c-0.34,0.84-0.82,1.65-1,2.53c-1.23,5.96-2.44,11.93-3.52,17.92
			c-0.09,0.47,0.74,1.55,1.22,1.6c1.58,0.18,2.01-0.29,1.78-2.27c-0.24-2.11-0.57-4.92,3.05-5.79c3.1-0.75,5.53-1.04,6.91,2.39
			C105.85,36.17,108.27,35.15,110.42,34.57z M120.23,34.32c-0.3-1.86-0.81-3.5-0.76-5.14c0.03-1.11,0.84-2.19,1.3-3.29
			c1.04,0.63,2.3,1.07,3.08,1.93c1.64,1.82,2.89,3.98,4.58,5.75c0.64,0.67,2.03,0.62,3.07,0.9c-0.37-0.92-0.6-1.95-1.16-2.74
			c-0.75-1.08-1.76-1.98-2.64-2.98c-1.84-2.07-2.36-6.09-6.74-4.46c-0.18,0.07-1.21-1.35-1.35-2.15c-0.22-1.29-0.16-2.66,0.03-3.97
			c0.15-1.04,0.72-2.92,1-2.91c1.39,0.09,3.26,0.29,3.99,1.21c0.89,1.14,0.85,3.03,1.17,4.6c0.12,0.58,0.09,1.18,0.14,1.78
			c0.62-0.15,1.64-0.12,1.8-0.47c0.66-1.44,1.83-3.31,1.37-4.43c-0.64-1.58-2.39-3.36-3.99-3.74c-2.67-0.63-5.6-0.3-8.41-0.19
			c-0.43,0.02-1.16,1.07-1.16,1.64c-0.07,5.59-0.04,11.18,0.05,16.77c0.01,0.63,0.53,1.7,0.96,1.79
			C117.82,34.48,119.16,34.32,120.23,34.32z M65.75,25.54c-5.35,5.42-5.49,11.37-0.94,16.75c3.93,4.65,10.2,5.47,15.21,2
			C66.56,41,63.86,37.6,65.75,25.54z M29.75,56.87c1.7,3.76,2.55,8.51,8.31,7.26c0.91-0.2,2.09,0.85,3.15,1.32
			c2.57,1.14,5.08,2.46,7.75,3.31c0.67,0.21,1.94-0.96,2.68-1.75c0.21-0.23-0.3-1.73-0.77-1.92C43.85,62.27,36.79,59.58,29.75,56.87
			z M160.43,43.22c0.3-1.04,0.28-2.46,0.97-3.05c1.87-1.59,0.4-7.39,5.74-4.73c0.01,0.01,0.59-0.94,0.53-0.99
			c-3.38-2.7-0.36-4.83,0.63-7.12c0.5-1.16,3.07-1.96,0.01-3.52c-2.42-1.23-2.49,0.22-3.24,1.6c-2.79,5.12-5.67,10.19-8.6,15.41
			C157.35,41.37,158.89,42.3,160.43,43.22z M172.66,49.66c0.33-0.45,0.89-1.06,1.29-1.77c2.6-4.58,4.85-9.4,7.87-13.67
			c1.66-2.35,0.18-2.43-1.05-3.32c-1.96-1.4-1.96-0.05-2.59,1.36c-1.01,2.28-1.49,5.24-4.84,5.61c-0.31,0.03-0.58,0.4-0.87,0.62
			c3.63,3.37-1.04,4.89-1.82,7.16C169.88,47.91,169.89,49.33,172.66,49.66z M144.4,37.17c1.17-5.33,2.21-10.15,3.31-14.97
			c0.22-0.95,0.44-2.01,1-2.76c1.53-2.04,1.61-2.04-0.82-2.45c-1.12-0.19-2.29-0.2-3.42-0.13c-1.56,0.09-1.76,0.32-0.28,1.35
			c0.48,0.33,0.18,2.09-0.08,3.12c-1.14,4.47-2.44,8.9-3.55,13.38c-0.14,0.54,0.36,1.65,0.83,1.86
			C142.4,37,143.59,37.03,144.4,37.17z M184.86,60.99c2.03-2.16,3.89-4.16,5.79-6.13c0.56-0.58,1.24-1.03,1.87-1.55
			c-2.79-3.41,0.41-6.33,1.09-9.28c0.69-3.02-0.08-4.22-2.61-5.12c-1.85,6.51-0.91,14.23-8.31,18.15c-0.21,0.11-0.12,1.31,0.19,1.76
			C183.52,59.74,184.4,60.51,184.86,60.99z M199.51,81.97c5.87,3.33,9.8,2.2,11.15-2.69c0.43-1.55,0.04-3.35,0.54-4.87
			c0.5-1.55,1.57-2.93,2.51-4.31c0.37-0.55,1.06-0.88,1.6-1.31c-0.69-0.37-1.35-0.99-2.07-1.07c-3.41-0.38-5.76,2.48-6.17,7.33
			C206.54,81.42,206.54,81.42,199.51,81.97z M187.65,211.03c-1.39-1.34-0.25-3.51-2.99-2.98c-1.15,0.22-4.33-0.69-3.81-3.83
			c0.14-0.83-0.21-1.74-0.34-2.61c-0.89,0.29-1.85,0.45-2.67,0.88c-2.73,1.46-3.68,3.14-0.87,5.66c1.44,1.29,2.35,3.17,3.65,4.65
			c0.76,0.86,2.31,2.27,2.64,2.06C184.88,213.83,186.22,212.35,187.65,211.03z M79.97,212.3c-0.29,0.45-0.57,0.89-0.86,1.34
			c-0.89-0.96-1.84-1.87-2.67-2.88c-0.78-0.95-1.44-1.99-2.16-2.99c-0.7,0.96-1.48,1.87-2.09,2.88c-1.29,2.12-2.56,4.26-3.69,6.47
			c-0.33,0.64-0.13,1.56-0.18,2.34c0.68-0.39,1.42-0.69,2.02-1.18c2.45-2.03,4.81-4.18,7.32-6.12
			C78.12,211.82,79.18,212.24,79.97,212.3z M49.91,48.03c-2.06,4.08-1.76,6.65,0.82,9.26c2.62,2.66,5.29,2.98,9.73,0.85
			C54.74,56.85,50.01,54.84,49.91,48.03z M57.93,212.26c0.4-0.11,0.83-0.09,1-0.29c2.94-3.51,5.88-7.02,8.73-10.6
			c0.23-0.29-0.09-1.51-0.29-1.55c-0.66-0.12-1.69-0.17-2.05,0.23c-2.86,3.2-5.62,6.49-8.34,9.81c-0.29,0.35-0.3,1.12-0.13,1.58
			C56.98,211.82,57.59,212.02,57.93,212.26z M149.42,230.6c-1.29-4.98-2.42-9.42-3.66-13.82c-0.08-0.28-1.12-0.54-1.57-0.38
			c-0.44,0.15-1.07,0.93-0.99,1.27c1.1,4.28,2.28,8.55,3.57,12.77c0.12,0.41,1.16,0.7,1.79,0.73
			C148.97,231.19,149.39,230.62,149.42,230.6z M85.78,228.4c0.37,0.15,0.73,0.3,1.1,0.45c0.12-0.45,0.22-0.9,0.38-1.34
			c1.31-3.53,2.67-7.05,3.9-10.61c0.11-0.33-0.5-1.19-0.95-1.36c-0.37-0.13-1.28,0.28-1.44,0.66c-1.36,3.34-2.67,6.71-3.82,10.12
			C84.77,226.86,85.48,227.7,85.78,228.4z M113.3,227.94c-0.1,0-0.21,0-0.31,0c0,1.8-0.08,3.61,0.06,5.41
			c0.03,0.39,0.8,0.87,1.31,1.01c0.29,0.08,1.07-0.43,1.08-0.7c0.17-3.77,0.29-7.54,0.29-11.32c0-0.36-0.85-1.05-1.25-1.01
			c-0.43,0.05-1.1,0.74-1.13,1.2C113.23,224.33,113.3,226.14,113.3,227.94z M125.13,228.03c0.08,0,0.16,0,0.24,0
			c0-1.65,0.11-3.3-0.06-4.94c-0.06-0.58-0.77-1.09-1.18-1.64c-0.39,0.57-1.07,1.13-1.11,1.72c-0.21,3.29-0.3,6.59-0.31,9.89
			c0,0.57,0.59,1.15,0.91,1.73c0.5-0.61,1.36-1.17,1.44-1.83C125.27,231.35,125.13,229.68,125.13,228.03z M167.3,224.43
			c-1.65-2.24-3.22-4.29-4.69-6.43c-0.64-0.94-0.91-2.14-1.6-3.02c-0.43-0.55-1.33-0.73-2.03-1.07c0,0.76-0.23,1.63,0.05,2.27
			c0.86,1.95,1.82,3.86,2.91,5.68C163.19,223.95,164.96,225.07,167.3,224.43z M105.45,228.14c-1.88-1.93-3.59-3.61-5.19-5.39
			c-0.53-0.59-0.74-1.45-1.1-2.19c-0.11,1.18-0.69,2.59-0.24,3.5c0.85,1.73,2.35,3.14,3.45,4.77c0.45,0.66,0.56,1.56,0.82,2.35
			C103.82,230.33,104.45,229.48,105.45,228.14z"/>
		<path class="st0" d="M168.28,116.59c3.38-0.64,6.77-1.29,10.15-1.93c0.32-0.06,0.86-0.08,0.91-0.23c0.58-1.98,0.62-4.33,1.75-5.89
			c1.33-1.84,2.79-2.9,1.07-5.45c-1.84-2.72-0.22-5.03,2.05-6.83c4.11-3.26,4.1-3.25,1.13-7.53c-0.29-0.42-0.18-1.13-0.25-1.7
			c0.58,0.09,1.23,0.03,1.74,0.28c6.19,2.98,6.63,7.77,1,11.64c-2.12,1.46-3.94,2.61-1.41,5.31c1.58,1.68,1.09,3.42-0.86,4.55
			c-3.88,2.25-4.2,4.4-1.98,8.73c1.67,3.26,0.64,8.1,0.24,12.18c-0.44,4.56-3.6,6.77-7.94,7.72c-0.67,0.15-1.55,1.87-1.41,2.73
			c1.43,9.08,0.14,17.92-2.68,26.48c-0.76,2.31-0.54,7.06-5.71,5.61c-0.21-0.06-0.83,1.66-1.38,2.48
			c-3.31,4.94-6.46,9.99-10.07,14.7c-1.44,1.88-3.73,3.65-5.97,4.28c-4.85,1.36-7.64,4.93-10.8,8.3c-2.37,2.53-5.04,4.8-7.64,7.12
			c-2.27,2.03-4.71,2.12-7.24,0.4c-3.56-2.43-7.1-4.89-10.73-7.22c-1.02-0.65-2.53-1.5-3.43-1.18c-4.38,1.56-7.97-0.11-11.03-2.73
			c-4.39-3.75-8.41-7.93-12.57-11.95c-0.99-0.96-1.72-2.87-3.29-0.49c-0.1,0.16-2-0.45-2.62-1.11c-6.29-6.7-10.27-14.59-11.73-23.7
			c-0.18-1.12-0.26-2.26-0.4-3.44c-5.06,1.93-5.62,1.52-5.21-3.86c0.11-1.48,0.29-3.01,0.82-4.37c0.54-1.38,1.18-1.76,3.22-1.08
			c4,1.35,4.64,3.64,4.49,7.31c-0.1,2.38,0.85,4.81,1.56,8.4c1.02-2.25,1.55-3.41,2.08-4.58c0.32-0.04,0.65-0.09,0.97-0.13
			c0.16,7.57,0.65,15.04,5.66,22.33c0-4.25,0-7.55,0-11.55c3.21,5.16,5.89,9.69,8.84,14.04c0.73,1.07,1.59,4.9,3.87,0.94
			c0.6,0.38,1.35,0.64,1.76,1.16c2.63,3.37,5.18,6.8,7.78,10.19c0.35,0.46,0.87,0.8,1.78,1.63c0-3.95,0-7.19,0-10.76
			c3.52,4.08,6.75,7.93,10.11,11.64c0.83,0.92,2.11,1.44,3.19,2.14c0.27-1.33,0.6-2.65,0.8-3.99c0.16-1.04,0.15-2.1,0.22-3.15
			c0.34-0.07,0.68-0.14,1.01-0.21c0.75,2.43,1.25,4.98,2.32,7.27c0.94,2,2.52,3.71,3.81,5.55c1.61-1.35,3.61-2.44,4.76-4.12
			c2.39-3.49,4.33-7.29,6.4-10.88c0.51,1.12,1.05,2.3,1.58,3.48c0.96-0.84,2.18-1.51,2.83-2.55c3.04-4.85,5.91-9.8,8.81-14.65
			c0.05,0.21,0.11,0.65,0.27,1.06c0.54,1.43,1.11,2.84,1.67,4.26c1.06-1.04,2.48-1.9,3.11-3.16c1.33-2.65,2.22-5.53,3.4-8.26
			c0.08-0.19,1.42-0.18,1.5,0.01c1.16,2.75,1.76,0.76,2.11-0.31c1.28-3.92,2.41-7.88,3.92-12.91c0.81,2.57,1.38,4.35,1.94,6.13
			c0.37,0.01,0.75,0.03,1.12,0.04c0.55-3.45,1.53-6.9,1.53-10.35c-0.01-3.78-1.08-7.5-0.44-11.4c0.4-2.45-1.1-3.55-3.75-2.74
			c-9.19,2.82-18.45,5.42-27.58,8.42c-1.62,0.53-3.08,2.35-4.04,3.93c-4.49,7.35-10.75,11.55-19.48,11.9
			c-8.87,0.36-14.99-3.83-17.64-12.24c-0.45-1.42-0.97-2.85-1.17-4.32c-0.35-2.58-1.64-3.37-4.11-2.72
			c-1.11,0.29-2.3,0.31-3.46,0.35c-7.42,0.24-12.21-2.89-15.05-9.64c-0.4-0.94-1.35-1.65-2.05-2.47c-0.43,0.86-0.87,1.72-1.27,2.59
			c-1.06,2.31-2.06,4.64-3.21,6.9c-0.1,0.19-1.17-0.12-1.79-0.2c0.96-2.58-1.23-5.21,0.95-8.1c2.45-3.25,5.88-6.51,5.07-11.43
			c-0.04-0.25,0.95-0.82,1.54-0.99c0.64-0.2,1.37-0.11,2.06-0.15c-0.44-0.48-0.82-1.02-1.31-1.44c-3.86-3.3-8.17-6.19-11.54-9.94
			c-9.59-10.68-5.46-29.84,9.61-33.38c2.91-0.68,4.1-2.19,4.77-5.24C79.98,60.17,88.11,53,99.27,49.12
			c11.35-3.95,23.09-4.77,34.86-2.4c13.18,2.66,21.49,10.62,23.96,24.05c0.49,2.67,1.57,3.72,4.23,4.42
			c3.45,0.91,6.96,2.37,9.88,4.4c3.95,2.74,6.4,6.67,5.7,11.91c-0.2,1.47-0.13,2.99,0,4.48
			C178.64,104.56,175.03,110.99,168.28,116.59z M130.59,151.07c-7.88,4.09-15.53,8.94-26.03,6.85c8.68,6.15,20.37,4.09,26.5-6.39
			c0.18-0.26,0.35-0.51,0.53-0.77C131.26,150.86,130.92,150.96,130.59,151.07z M104.3,80.57c-0.09-0.36-0.19-0.72-0.28-1.07
			c5.07-0.59,10.18-0.94,15.2-1.82c9.13-1.6,18.32-3.06,27.25-5.47c5.97-1.62,6.83-5.3,3.9-10.82c-3.12-5.88-8.38-8.93-14.54-10.36
			c-11.92-2.75-23.85-2.04-35.36,1.81c-19.39,6.49-23.32,20.35-15.25,39.44c1.82,4.3,4.81,6.22,9.23,6
			c3.84-0.19,7.8,1.64,11.53-1.04c1.37-0.98,3.36-1.44,5.09-1.5c5.81-0.19,11.62-0.15,17.43-0.04c1.43,0.03,3.19,0.23,4.2,1.08
			c4.97,4.13,10.26,2.09,15.43,0.98c1.14-0.25,2.52-1.86,2.84-3.09c1.44-5.6,2.8-11.26,3.67-16.97c0.52-3.37-0.76-4.04-4.03-3
			c-3.79,1.21-7.53,2.62-11.39,3.54C127.71,80.96,116.11,82.61,104.3,80.57z M115.98,123.89c1,0,1.99,0.02,2.99,0
			c13.81-0.35,27.51-1.43,40.44-6.92c7.5-3.18,13.51-8.01,15.65-16.21c3.04-11.69-2.2-18.86-13.09-21.44
			c-2.57-0.61-3.69,0.27-4.05,2.79c-0.63,4.43-1.59,8.82-2.08,13.27c-0.46,4.1-2.48,6.8-6.27,8.12c-4.06,1.41-8.2,2.61-12.28,3.96
			c-1.03,0.34-2.71,0.73-2.87,1.4c-0.85,3.52-3.79,3.56-6.23,3.67c-6.3,0.27-12.61,0.15-18.92,0.08c-2.21-0.02-4.18-0.37-4.61-3.35
			c-0.13-0.9-1.93-1.89-3.14-2.24c-4.59-1.35-9.32-2.26-13.88-3.72c-3.08-0.99-5.33-2.93-5.99-6.6c-0.81-4.55-2.24-8.99-3.43-13.48
			c-0.5-1.88-1.15-3.28-3.73-2.86c-7.21,1.17-17.15,12.83-13.58,21.34c1.9,4.53,4.08,8.75,7.89,11.47c3.7,2.64,7.1,5.58,12.18,6.7
			C92.58,122.44,104.17,123.79,115.98,123.89z M142.01,138.07c0.05,0.42,0.11,0.85,0.16,1.27c2.81-0.85,5.7-1.51,8.38-2.65
			c1.18-0.5,2.45-1.82,2.78-3.02c0.7-2.52,0.8-5.21,1.15-7.82c0.32-2.35-0.64-2.81-2.87-2.35c-5.5,1.14-11.05,2.05-16.58,3.05
			c-2.26,0.41-4.91,0.28-6.61,1.49c-0.87,0.61,0.02,3.63,0.01,5.56c0,0.98-0.37,1.98-0.28,2.94c0.05,0.54,0.69,1.46,1.08,1.47
			C133.49,138.11,137.75,138.07,142.01,138.07z M125.41,134.3c-0.86-2.91,0.34-6.35-4.44-6.64c-10.88-0.65-21.74-1.78-32.61-2.66
			c-0.7-0.06-2.08,0.35-2.07,0.49c0.11,2.43,0.05,4.97,0.82,7.21c0.28,0.82,2.63,1.4,3.99,1.32c4.78-0.28,9.54-0.99,14.31-1.34
			c3.33-0.25,6.68-0.22,10.03-0.19c0.31,0,0.98,1.08,0.85,1.44c-0.92,2.62-0.65,3.69,2.24,2.01c2.01-1.16,2.54,0.12,3,1.77
			c0.82,2.93,2.15,1.24,2.88,0.07C125.07,136.73,125.14,135.31,125.41,134.3z M78.57,135.45c2.23,5.88,6.55,7.57,12.32,6.87
			c3.83-0.46,7.31-2.89,11.59,1.26c2.81,2.73,8.73,2.33,13.29,3.11c0.93,0.16,2.64-0.43,2.9-1.1c0.4-1.01,0.26-2.73-0.39-3.56
			c-3.1-3.94-7.12-6.56-12.32-6.43c-3.3,0.08-6.6,0.58-9.87,1.1C90.19,137.64,84.33,138.63,78.57,135.45z M119.46,99.65
			c-1.98,0-3.98-0.12-5.95,0.06c-0.85,0.08-2,0.55-2.42,1.21c-2.34,3.72,0.27,8.47,4.57,8.51c2.65,0.02,5.29,0.03,7.94-0.03
			c3.54-0.08,4.91-1.7,4.88-5.69c-0.02-3.03-1.26-4.61-4.57-4.1C122.47,99.84,120.95,99.65,119.46,99.65z M161.1,138.01
			c0.1,0.29,0.19,0.58,0.29,0.87c3.81-1.15,7.65-2.19,11.41-3.46c6.86-2.32,8.69-5.74,7.24-12.65c-4.03,0.81-8.02,1.85-12.08,2.35
			c-2.9,0.35-3.78,1.24-2.53,4c1.73,3.82,1.04,6.65-3.48,7.76C161.6,136.96,161.38,137.62,161.1,138.01z M124.92,150.54
			c-8.49-1.35-15.62-2.38-22.7-3.68c-2.03-0.37-1.79,0.43-1.58,1.74c0.83,5.15,3.32,7.44,8.5,6.48
			C114.2,154.15,119.08,152.27,124.92,150.54z M141.52,142.56c-5.95-2.35-11.57-2.24-16.84,0.76c-0.99,0.57-1.62,1.78-2.42,2.69
			c1.05,0.21,2.19,0.79,3.14,0.57C130.8,145.35,136.15,143.92,141.52,142.56z M83.2,133.37c0-2.87,0.24-4.85-0.09-6.74
			c-0.2-1.16-1.27-3.04-1.98-3.05c-1.35-0.02-3.13,0.74-3.95,1.79c-0.58,0.74-0.34,2.91,0.36,3.68
			C79.04,130.68,81.08,131.81,83.2,133.37z M166.22,122.83c4.77-0.67,9.83-0.59,13.41-4.56
			C174.75,118.56,169.89,118.91,166.22,122.83z M157.1,133.4c5.82-3.02,4.03-4.47,3.54-10.89c-0.05-0.66-0.75-1.26-1.15-1.9
			c-0.52,0.71-1.42,1.37-1.51,2.12C157.57,126.16,157.39,129.61,157.1,133.4z"/>
		<path class="st0" d="M58.08,161.77c-13.42-25.68-14.99-54.48-4-71.17c0.12,1.3,0.37,2.23,0.25,3.1
			c-1.47,10.5,3.47,18.16,10.83,24.81c3.95,3.57,4.17,5.57,1.32,10.11C60.3,138.5,58.05,149.4,58.08,161.77z"/>
		<path class="st0" d="M196.81,118.77c-0.55,21.63-6.34,38.41-19.27,52.44c-0.56,0.61-1.09,1.32-1.78,1.72
			c-0.87,0.5-1.9,0.74-2.85,1.08c0.32-0.83,0.59-1.69,0.97-2.49c4.06-8.55,5.25-17.66,4.92-26.97c-0.09-2.66,0.37-4.16,2.99-5.31
			c3.62-1.59,5.2-5.04,5.89-8.74c0.98-5.24,1.43-10.48-0.57-15.68c-0.3-0.77,0.35-2.36,1.07-2.99c2.48-2.16,3.67-4.46,2.7-7.88
			c-0.26-0.9,1.04-2.25,1.63-3.39c0.57,0.76,1.5,1.46,1.65,2.29C195.28,109.05,196.24,115.25,196.81,118.77z"/>
		<path class="st0" d="M179.36,81.17c-4.09-4.99-9.14-8.41-15.54-9.74c-0.81-0.17-1.63-1.42-2-2.34c-1.69-4.29-3.21-8.63-4.88-13.2
			c0.69,0.26,1.67,0.49,2.5,0.98c7.48,4.42,13.98,9.99,19.75,16.5C181.59,76.06,181.95,78.32,179.36,81.17z"/>
		<path class="st0" d="M61.47,77.17c4.55-5.08,9.09-10.16,13.64-15.25c0.36,0.26,0.72,0.52,1.08,0.78c-0.93,2.88-1.71,5.81-2.85,8.6
			c-0.42,1.01-1.59,1.88-2.62,2.44c-2.72,1.48-5.56,2.75-8.35,4.1C62.07,77.62,61.77,77.4,61.47,77.17z"/>
		<path class="st0" d="M62.37,77.85c-0.28,0.21-0.57,0.42-0.85,0.63c-0.02-0.44-0.03-0.87-0.05-1.31
			C61.77,77.4,62.07,77.62,62.37,77.85z"/>
	</g>
</g>
</svg>
