<?xml version="1.0" encoding="utf-8"?>
<!-- Generator: Adobe Illustrator 24.0.2, SVG Export Plug-In . SVG Version: 6.00 Build 0)  -->
<svg version="1.1" id="Layer_1" xmlns="http://www.w3.org/2000/svg" xmlns:xlink="http://www.w3.org/1999/xlink" x="0px" y="0px"
	 viewBox="0 0 346.3 459.4" style="enable-background:new 0 0 346.3 459.4;" xml:space="preserve">
<style type="text/css">
	.st0{fill:#F16667;}
	.st1{fill:#109A48;}
	.st2{fill:#F7ED38;}
	.st3{fill:#B89BC9;}
	.st4{fill:#7128A5;}
	.st5{fill:#991D24;}
	.st6{fill:#A06E1F;}
	.st7{fill:#012610;}
	.st8{display:none;}
</style>
<g id="Layer_2_1_">
	<path class="st0" d="M114.8,459.4h137.8l-17.2-107.5l47.8-68.2l15.8-49.2c0,0,4.5-15-8.1-43.7l-64.6-74.7L145,129.4l-52.2,42.8
		l-23.8,21.6l5.4,64.9l15,35.4l10.2,30.2l13.9,37.1l16.5,31.9L114.8,459.4z"/>
	<polygon class="st1" points="187.7,165.6 182.6,186 168.6,208 149.6,225.4 133,222.1 138.3,190.8 153.1,172.2 165.7,159.3 
		153.1,139.1 39.5,150.9 36.9,100.1 10.8,79.6 10.8,64.4 64.8,64.4 78.2,66.3 267.2,53.6 301,46 339,46 331.1,66.3 315.8,85.5 
		253.5,177.1 251.1,193.8 239.9,208.6 201.3,162.9 	"/>
	<path class="st2" d="M167.4,329.1c0,0-2-9.2-34.6-20.8l-43.8-3.6l-14.8,6.5l5.9,30.3l-3.6,26.1l4.2,17.2h24.3l37.4-14.2l24.9-5.3
		l10.3,17.2l17-3.6l6.5-14.2l34.2,10.5l40.2,9.7h15.3v-16l-5.4-24l5.4-17.5v-17.2l-15.3-8.3l-32.8,12.1l-12.7-3.9
		c0,0,8.3-3.7-22.9,3.9l-23.5-5.6l-13.9,5.6L167.4,329.1z"/>
	<path class="st3" d="M148.9,146.1c0,0-27.6,37.5-42.3,37.5l-18.2,4.9l-16.7-11.8l-13.3-7.2l-19-4v-14.6l3.8-15.2l-3.8-13.3
		l2.7-24.6l21.2-7.6l14.4-10.7l0.4-13.3l2.7-12.7l-1.9-18.7l15.3-15.5l12.1-7.2l23.8,1.5l9.9,9.5l18.1,1.1l18.5-14.8l32.8,7.8
		c0,0,9.2,2.1,36,13.5l9.5,33.6l2.3,19.4l18.5-12.1l15.3,0.8l12.8,15.2l16.3,7.2l15.9,2.7l-2.3,23.5l2.3,17.8v17.1l-11.6,16.3
		l-24.4,7.2l-9,11.4h-11.8l-20.5-18.6h-21.2l-9.5-29.6l-20.7,2.5l-16.9,14.6l-27.7-10.2L148.9,146.1z"/>
	<path class="st4" d="M183.7,100.8c-4.2,0-7.7,3.4-7.7,7.7s3.4,7.7,7.7,7.7c16.9,0,30.6-13.7,30.6-30.6c0-16.9-13.7-30.6-30.6-30.6
		c-16.9,0-30.6,13.7-30.6,30.6c0,4.2,3.4,7.7,7.7,7.7s7.7-3.4,7.7-7.7c0-8.5,6.9-15.3,15.3-15.3c8.5,0,15.3,6.8,15.3,15.3
		C199.1,93.9,192.2,100.8,183.7,100.8L183.7,100.8z M91.9,122.5c4.2,0,7.7-3.4,7.7-7.7c0-4.2-3.4-7.7-7.7-7.7c-12.7,0-23,10.3-23,23
		s10.3,23,23,23c4.2,0,7.7-3.4,7.7-7.7s-3.4-7.7-7.7-7.7s-7.7-3.4-7.7-7.7C84.2,126,87.7,122.5,91.9,122.5L91.9,122.5z M283.3,107.2
		c-4.2,0-7.7,3.4-7.7,7.7c0,4.2,3.4,7.7,7.7,7.7s7.7,3.4,7.7,7.7s-3.4,7.7-7.7,7.7s-7.7,3.4-7.7,7.7s3.4,7.7,7.7,7.7
		c12.7,0,23-10.3,23-23C306.2,117.5,295.9,107.2,283.3,107.2L283.3,107.2z"/>
	<path class="st5" d="M99.9,296.2c-15-18.9-23.2-42.3-23.3-66.4v-35.6c-3.9-6.1-8.8-12.9-15.2-14.6v50.2c0,23.4,6.8,46.4,19.5,66.1
		c-0.1,0-0.1,0.1-0.2,0.1C86.8,297.1,93.3,296.2,99.9,296.2z"/>
	<path class="st5" d="M120.3,385.3l-13.1,64.9c-0.5,2-0.1,4.2,1.1,5.9c1.2,1.7,3,2.9,5,3.3h1.5c3.7,0.1,6.9-2.5,7.7-6.1l14.6-72.9
		c-7,1.4-15.2,1.4-20.3,6.2L120.3,385.3z"/>
	<path class="st5" d="M230.4,379.8l14.6,73.5c0.8,3.6,4,6.2,7.7,6.1h1.5c2.1-0.4,3.9-1.5,5-3.3c1.2-1.7,1.6-3.9,1.1-5.9l-12.8-63.8
		C242.6,382.5,236.5,378.8,230.4,379.8z"/>
	<path class="st5" d="M306.2,222.1c0-4.2-3.4-7.7-7.7-7.7c-4.2,0-7.7,3.4-7.7,7.7v7.7c0,24.3-8.3,47.8-23.4,66.8
		c6.5,1.4,12.9-0.9,19.4-1.2c12.5-19.6,19.2-42.3,19.3-65.6V222.1z"/>
	<path class="st6" d="M292.9,347.6c-0.8-1.9-0.8-4.1,0-6l6.5-15.3c2.5-5.7,2.6-12.2,0.2-18c-2.4-5.8-7.1-10.4-12.9-12.6
		c0.1-0.1,0.1-0.2,0.2-0.3c-6.5,0.3-12.9,2.6-19.4,1.2c-0.1,0.1-0.2,0.2-0.2,0.3L230.1,310c-2.7,0.8-4.8,3.1-5.4,5.8
		c-0.6,2.8,0.5,5.7,2.7,7.5c2.2,1.8,5.2,2.2,7.9,1.1l40.3-14.5c2.9-1,6.1-0.3,8.2,1.9c2.1,2.2,2.7,5.5,1.4,8.3l-6.6,15.3
		c-2.5,5.8-2.5,12.3,0,18.1l6.6,15.3c1.2,2.8,0.7,6.1-1.4,8.3c-2.1,2.2-5.4,3-8.2,1.9l-68.9-24.6v-30l13.7-15.7
		c10.4-11.8,18-25.7,22.5-40.8l1.8-5.7c1.2-4.2-1.3-8.5-5.4-9.6c-4.1-1.2-8.4,1.3-9.6,5.4l-1.7,5.6c-3.9,12.8-10.3,24.7-19.1,34.8
		l-7.7,8.5c-2.6-3.2-6-5.7-9.9-7.1v-32c0-4.2-3.4-7.7-7.7-7.7c-4.2,0-7.7,3.4-7.7,7.7v32c-4.2,1.5-7.9,4.2-10.7,7.7l-5.1-5.1
		c-10.4-10.4-18.3-23.1-23-37.1c-1.4-4-5.7-6.2-9.7-4.8c-4,1.3-6.2,5.7-4.8,9.7c5.4,16.2,14.6,30.9,26.7,43l11.3,11.4v29.8
		l-68.9,24.6c-2.9,1-6.1,0.3-8.2-1.9c-2.1-2.2-2.7-5.5-1.4-8.3l6.6-15.3c2.4-5.8,2.4-12.3,0-18.1l-6.6-15.3
		c-1.2-2.8-0.7-6.1,1.4-8.3c2.1-2.2,5.4-3,8.2-1.9l35.8,12.9c4,1.4,8.4-0.6,9.8-4.6c1.4-4-0.6-8.4-4.6-9.8l-32.5-11.5
		c-0.2-0.2-0.3-0.4-0.5-0.6c-6.6,0-13.1,1-19.2-0.3c-5.7,2.3-10.3,6.8-12.7,12.5c-2.4,5.8-2.3,12.3,0.2,18l6.5,15.3
		c0.8,1.9,0.8,4.1,0,6L68.1,363c-3,7.1-2.4,15.2,1.9,21.7c4.2,6.5,11.4,10.3,19.1,10.4c2.6,0,5.2-0.5,7.7-1.4l20-7.1
		c5.1-4.8,13.3-4.8,20.3-6.2l0.2-1.2l19.7-7l-11.6,39.3c-0.6,2-0.4,4.2,0.7,6.1c1,1.9,2.8,3.2,4.9,3.6c0.7,0.1,1.4,0.1,2.1,0
		c3.5,0.1,6.7-2.2,7.7-5.6l8.7-30.6c8.4,7.1,20.7,7.1,29.1,0l8.7,30.6c0.9,3.2,3.7,5.4,7.1,5.6c0.7,0.1,1.4,0.1,2.1,0
		c2.1-0.5,3.9-1.8,4.9-3.6c1.1-1.9,1.3-4,0.7-6.1l-11.5-39.3l19.7,7l0.1,0.6c6.1-1,12.1,2.7,17.1,6.6l-0.2-1.2l23.5,8.3
		c2.5,0.9,5,1.4,7.7,1.4c7.7,0,14.9-3.9,19.1-10.4c4.2-6.5,4.9-14.6,1.9-21.7L292.9,347.6z M191.4,367.5c0,4.2-3.4,7.7-7.7,7.7
		c-4.2,0-7.7-3.4-7.7-7.7v-45.9c0-4.2,3.4-7.7,7.7-7.7c4.2,0,7.7,3.4,7.7,7.7V367.5z"/>
	<path class="st7" d="M70.5,56.9L70.5,56.9c-5.4-2.2-11.1-3.3-17-3.3H7.7c-4.2,0-7.7,3.4-7.7,7.7c0,18.5,11.2,35.2,28.2,42.2
		c3.4-5.3,6.4-10.4,11.8-12.1c9.1-3.6,19.9-4,24.8-11.6l-1.1,1.4l-12.8,1.9c-5.4,0.8-10.4,3.3-14.3,7.2C26.6,87.1,19,79,16.3,68.9
		h37.3c4.7,0,9.4,1.1,13.6,3.2c0.1,0.6,0.2,1.3,0.3,1.9C70,68.5,71.6,62.6,70.5,56.9z"/>
	<path class="st7" d="M344.5,46c0-4.2-3.4-7.7-7.7-7.7h-45.9c-11.3-0.1-22.2,4-30.6,11.5c-0.1-0.4-0.2-0.8-0.4-1.2
		c-0.4,10.2-3.4,20.4,4.1,29.7c1,2,6,0,7-2c9.3-8.1,21.7-8.8,32.6-5.1l-0.1-0.2c-4.8-6.1-12-9.7-19.7-9.8c-7.7-0.2-15,3.2-20,9
		c5.2-10.2,15.6-16.6,27.1-16.7h37.3c-2.5,9.4-9.2,16.9-18,20.5c4.1,2.2,7.8,5,10.8,8.3c1.6,1.1,3.5,1.3,5.6,1.2
		c-0.6-0.1-1.2-0.3-1.8-0.4C337,74.8,344.4,60.9,344.5,46z"/>
	<path class="st7" d="M192.8,170.4c-13.7,0.3-24.1-10.1-36.9-15.3l-19.5,19.6c-17.9,18-17.9,47,0,64.9c3,3,7.8,3,10.8,0l32.6-32.9
		C189.3,197.1,194,183.8,192.8,170.4z M169,195.9L142.6,222c-2.7-4.6-4.2-9.9-4.2-15.3c0-8.1,3.2-15.9,8.9-21.6l19.5-19.5
		c3.3,2.2,6.9,3.7,10.7,4.6C178.8,179.6,175.7,189.1,169,195.9z"/>
	<path class="st4" d="M249.7,163.5c-7.7,0.1-14.8-3.6-14.7-11.8c-4.5-2-9.3-3-14.5-2.6c-0.6,5.8,0.8,11.7,4,16.7
		c4,6.1,10.5,10.2,17.8,11.2h2.4c0,0.2,0.1,0.3,0.1,0.5c3.8-1.5,8.3-1.1,11.8-3.1C254.6,170.6,252.3,166.9,249.7,163.5z"/>
	<path class="st7" d="M256.5,174.5c-3.5,2-8,1.6-11.8,3.1c1.5,7.4,0.3,15-3.4,21.5v0.2L214.9,173c-3.6-3.7-6.3-8.2-7.7-13.2l0.5-0.5
		l7-9c-0.3,0.1-0.5,0.1-0.8,0.2c-8.2,2.7-14.7,11.3-18.9,20.4c2.2,4.9,5.2,9.4,9,13.3l32.4,32.5c3,3,7.8,3,10.8,0
		c8-8.2,12.6-19,13-30.4l0.3,0.4C259.7,182.5,258.3,178.4,256.5,174.5z"/>
	<polygon points="241.2,199.3 241.2,199.3 241.2,199.3 	"/>
	<path class="st4" d="M339.8,130.2l4.8-12c2.9-7.3,2.3-15.6-1.7-22.4c-3.5-6.1-9.4-10.5-16.2-12.1c-2.1,0-4-0.2-5.6-1.2
		c-12-13-35-19-50-6c-1,2-6,4-7,2c-7.5-9.3-4.5-19.5-4.1-29.7c-0.6-2-1.5-4-2.5-5.9c-4.6-8.2-12.8-13.9-22.1-15.3
		c-4.2-0.6-8.2,2.3-8.8,6.5c-0.6,4.2,2.3,8.2,6.6,8.8c4.6,0.7,8.7,3.4,11,7.5c2.4,4.1,2.7,9,1,13.3l-7.7,18.8
		c-0.7,1.8-0.7,3.9,0,5.7l7.7,18.8c1.7,4.4,1.4,9.3-1,13.3c-2.3,4.1-6.4,6.8-11,7.5l-20.1,2.9c-2,0.3-3.7,1.3-5,2.8l-12.6,16
		c-3,3.4-7.4,5.4-11.9,5.4c-4.6,0-8.9-2-11.9-5.4l-12.5-15.9c-1.2-1.5-3-2.6-5-2.8l-20.1-2.9c-4.5-0.8-8.5-3.6-10.7-7.6
		c-2.3-4-2.6-8.8-0.9-13.1l7.7-18.8c0.7-1.8,0.7-3.9,0-5.7l-7.7-18.8c-1.8-4.3-1.5-9.2,0.8-13.2c2.2-4,6.2-6.9,10.8-7.6l20.1-2.9
		c1.9-0.3,3.7-1.3,5-2.8l12.6-16c3-3.5,7.4-5.6,12-5.6s9,2,12,5.6c2.6,3.3,7.4,3.9,10.7,1.3c1.6-1.3,2.7-3.1,2.9-5.1
		c0.2-2-0.3-4.1-1.6-5.7C202,4.3,193.1,0,183.7,0c-9.4,0-18.2,4.3-24,11.7l-5.6,7c-2.1-1.1-4.4-1.9-6.7-2.3l-8.9-1.1l-5.5-7
		c-4-5.2-10.1-8.3-16.7-8.3C109.8,0,103.5,3,99.5,8.1l-5.4,7.2l-8.9,1.3c-6.4,0.9-12.1,4.7-15.3,10.4c-3.1,5.6-3.4,12.3-1,18.2
		l3,8.3l-1.4,3.3c1.3,6.8-1.3,13.9-4.5,20.4c-4,10-16,10-26,14c-5.4,1.8-8.4,6.8-11.8,12.1c0.4,0.2,0.7,0.3,1.1,0.5
		c-0.9,4.8-0.4,9.7,1.3,14.2l4.8,12l-4.8,12c-2.9,7.3-2.3,15.6,1.7,22.4c3.9,6.9,10.8,11.5,18.6,12.6l10.4,1.6v0.7
		c6.4,1.7,11.4,8.5,15.2,14.6V194c4.4,3.4,9.8,5.1,15.3,5.1c7.9,0,15.3-3.6,20.2-9.8l9.9-12.6c1.3-1.6,1.8-3.6,1.6-5.6
		c-0.2-2-1.3-3.9-2.9-5.1c-3.3-2.6-8.1-2-10.7,1.3l-10,12.6c-2,2.4-5,3.8-8.2,3.8s-6.2-1.4-8.2-3.8l-10-12.6c-1.2-1.5-3-2.5-4.9-2.8
		L53,162.1c-3.2-0.5-6-2.4-7.5-5.1c-1.6-2.8-1.9-6.1-0.7-9.1l6-14.8c0.8-1.8,0.8-3.9,0-5.7l-6-14.9c-1.2-3-0.9-6.3,0.7-9.1
		c0.1-0.2,0.2-0.4,0.4-0.5c1.6-2.4,4.2-4.1,7.1-4.5L68.8,96c1.9-0.3,3.7-1.3,4.9-2.8l10-12.6c2-2.4,5-3.8,8.2-3.8
		c3.2,0,6.2,1.4,8.2,3.8l10,12.6c0.2,0.3,0.5,0.5,0.8,0.8l-3,7.7c-3.5,8.7-2.8,18.5,1.9,26.6c4.6,8.2,12.8,13.9,22.1,15.3l17.1,2.5
		l7.1,9l-0.1,0.1c12.7,5.2,23.2,15.6,36.9,15.3c0-0.4-0.1-0.8-0.1-1.1l1.6-0.5c0.3,0.7,0.5,1.4,0.8,2c4.1-9.1,10.7-17.6,18.9-20.4
		c7.8-2.3,15.1-1.4,21.5,1.6c0-1.4,0.2-2.8,0.7-4.1l2.2-5.4c8.6-2.1,15.8-7.8,19.9-15.7c4.1-7.9,4.5-17.1,1.3-25.3l-2-5.1l2.6-0.4
		c2-0.3,3.7-1.3,4.9-2.8l10-12.6c2-2.4,5-3.8,8.2-3.8c3.2,0,6.2,1.4,8.2,3.8l10,12.6c1.2,1.5,3,2.5,4.9,2.8l15.8,2.3
		c3.2,0.5,6,2.4,7.5,5.1c1.6,2.8,1.9,6.1,0.7,9.1l-6,14.8c-0.7,1.8-0.7,3.8,0,5.7l6,14.8c1.2,3,1,6.3-0.7,9.1
		c-1.6,2.8-4.4,4.7-7.5,5.1l-15.8,2.3c-2,0.3-3.7,1.3-4.9,2.8l-10,12.6c-2,2.4-5,3.8-8.2,3.8c-3.2,0-6.2-1.4-8.2-3.8l-10-12.6
		c-1.2-1.5-3-2.5-4.9-2.8l-11.1-1.6c5.7,6.8,9.7,15.3,11.6,23.7l2.1,2.7c4.9,6.2,12.3,9.8,20.2,9.8c7.9,0,15.3-3.6,20.2-9.8
		l7.7-10.2l12.8-1.9c7.8-1.1,14.7-5.7,18.6-12.6c4.2-6.7,5-15,2.3-22.4L339.8,130.2z M109.9,42.8c-4.1,7.2-5.1,15.7-2.8,23.6
		c-4.4-3.3-9.8-5.1-15.3-5.1c-2.4,0.1-4.8,0.4-7.1,1.1l2.4-5.9c0.7-1.8,0.7-3.9,0-5.7l-4.5-11.1c-0.5-1.7-0.3-3.4,0.6-4.9
		c0.9-1.5,2.4-2.5,4.1-2.8l12.1-2.1c1.9-0.3,3.7-1.3,4.9-2.8l7.7-9.5c1-1.3,2.5-2.1,4.2-2.2c1.8,0,3.5,0.8,4.6,2.2l7.7,9.5
		c0.4,0.5,0.9,0.9,1.5,1.2C121.6,30.1,114.3,35.3,109.9,42.8z"/>
</g>
<g id="Layer_1_1_" class="st8">
</g>
<g id="Layer_3">
</g>
</svg>
