<?xml version="1.0" encoding="utf-8"?>
<!-- Generator: Adobe Illustrator 24.0.2, SVG Export Plug-In . SVG Version: 6.00 Build 0)  -->
<svg version="1.1" id="Layer_1" xmlns="http://www.w3.org/2000/svg" xmlns:xlink="http://www.w3.org/1999/xlink" x="0px" y="0px"
	 viewBox="0 0 190.52 182.58" style="enable-background:new 0 0 190.52 182.58;" xml:space="preserve">
<style type="text/css">
	.st0{fill:#939598;}
	.st1{fill:#F1F2F2;}
	.st2{fill:#CCD6DD;}
	.st3{fill:#8A4B38;}
	.st4{fill:#AD5540;}
	.st5{fill:#662113;}
	.st6{fill:#88C9F9;}
	.st7{fill:#FFAC33;}
</style>
<g>
	<path class="st0" d="M190.52,129.67c0,29.21-42.65,52.91-95.26,52.91C42.65,182.58,0,158.88,0,129.67
		c0-29.23,42.65-52.93,95.26-52.93C147.88,76.74,190.52,100.44,190.52,129.67"/>
	<path class="st1" d="M190.52,119.08c0,29.21-42.65,52.93-95.26,52.93C42.65,172,0,148.29,0,119.08c0-29.23,42.65-52.92,95.26-52.92
		C147.88,66.16,190.52,89.85,190.52,119.08"/>
	<path class="st2" d="M173.59,113.78c0,24.04-35.07,43.53-78.32,43.53c-43.25,0-78.32-19.49-78.32-43.53
		c0-24.03,35.07-43.5,78.32-43.5C138.51,70.28,173.59,89.75,173.59,113.78"/>
	<path class="st3" d="M153.48,113.78c0,16.25-26.07,29.41-58.21,29.41c-32.14,0-58.21-13.15-58.21-29.41
		c0-16.23,26.07-29.39,58.21-29.39C127.4,84.39,153.48,97.54,153.48,113.78"/>
	<path class="st4" d="M166.19,114c0,20.6-31.75,37.28-70.93,37.28c-39.18,0-70.93-16.68-70.93-37.28
		c0-20.57,31.75-37.26,70.93-37.26C134.44,76.74,166.19,93.43,166.19,114"/>
	<path class="st5" d="M164.06,108.49c0,47.62-137.6,47.62-137.6,0V66.16h137.6V108.49z M164.06,108.49"/>
	<path class="st4" d="M166.19,61.1c0,20.59-31.75,37.26-70.93,37.26c-39.18,0-70.93-16.67-70.93-37.26
		c0-20.59,31.75-37.28,70.93-37.28C134.44,23.82,166.19,40.51,166.19,61.1"/>
	<path class="st6" d="M58.21,66.16c-2.91,0-5.28-2.37-5.28-5.29V23.82c0-2.91,2.37-5.29,5.28-5.29c2.93,0,5.3,2.37,5.3,5.29v37.05
		C63.51,63.78,61.14,66.16,58.21,66.16"/>
	<path class="st6" d="M95.26,82.03c-2.91,0-5.29-2.38-5.29-5.29V39.69c0-2.91,2.38-5.29,5.29-5.29c2.91,0,5.29,2.37,5.29,5.29v37.05
		C100.55,79.65,98.17,82.03,95.26,82.03"/>
	<path class="st6" d="M132.31,66.16c-2.93,0-5.3-2.37-5.3-5.29V23.82c0-2.91,2.37-5.29,5.3-5.29c2.91,0,5.28,2.37,5.28,5.29v37.05
		C137.6,63.78,135.23,66.16,132.31,66.16"/>
	<path class="st7" d="M132.31,31.75c-5.63,0-10.05-2.57-11.83-6.88c-1.54-3.73-2.31-11.83,9.95-24.11c1.03-1.03,2.72-1.03,3.75,0
		c12.26,12.27,11.49,20.37,9.95,24.11C142.34,29.18,137.93,31.75,132.31,31.75"/>
	<path class="st7" d="M95.26,47.63c-5.61,0-10.03-2.57-11.81-6.88c-1.55-3.73-2.31-11.83,9.95-24.11c1.03-1.03,2.7-1.03,3.73,0
		c12.28,12.27,11.5,20.37,9.95,24.11C105.3,45.06,100.88,47.63,95.26,47.63"/>
	<path class="st7" d="M58.21,31.75c-5.61,0-10.03-2.57-11.81-6.88c-1.54-3.73-2.31-11.83,9.95-24.11c1.03-1.03,2.72-1.03,3.75,0
		c12.26,12.27,11.49,20.37,9.95,24.11C68.26,29.18,63.84,31.75,58.21,31.75"/>
</g>
</svg>
